<svg xmlns="http://www.w3.org/2000/svg" xmlns:xlink="http://www.w3.org/1999/xlink" width="173" zoomAndPan="magnify" viewBox="0 0 129.75 87.749997" height="117" preserveAspectRatio="xMidYMid meet" version="1.0"><defs><clipPath id="09b6837364"><path d="M 0.0585938 0 L 129.441406 0 L 129.441406 13 L 0.0585938 13 Z M 0.0585938 0 " clip-rule="nonzero"/></clipPath><clipPath id="79476de5df"><path d="M 0.0585938 37 L 129.441406 37 L 129.441406 50 L 0.0585938 50 Z M 0.0585938 37 " clip-rule="nonzero"/></clipPath><clipPath id="0e90980f93"><path d="M 0.0585938 74 L 129.441406 74 L 129.441406 87.5 L 0.0585938 87.5 Z M 0.0585938 74 " clip-rule="nonzero"/></clipPath></defs><g clip-path="url(#09b6837364)"><path fill="#000000" d="M 6.699219 12.292969 L 122.800781 12.292969 C 126.234375 12.292969 129.019531 9.507812 129.019531 6.074219 C 129.019531 2.636719 126.234375 -0.148438 122.800781 -0.148438 L 6.699219 -0.148438 C 3.265625 -0.148438 0.480469 2.636719 0.480469 6.074219 C 0.480469 9.507812 3.265625 12.292969 6.699219 12.292969 Z M 6.699219 12.292969 " fill-opacity="1" fill-rule="nonzero"/></g><g clip-path="url(#79476de5df)"><path fill="#000000" d="M 122.800781 37.324219 L 6.699219 37.324219 C 3.265625 37.324219 0.480469 40.105469 0.480469 43.542969 C 0.480469 46.980469 3.265625 49.761719 6.699219 49.761719 L 122.800781 49.761719 C 126.234375 49.761719 129.019531 46.980469 129.019531 43.542969 C 129.019531 40.105469 126.234375 37.324219 122.800781 37.324219 Z M 122.800781 37.324219 " fill-opacity="1" fill-rule="nonzero"/></g><g clip-path="url(#0e90980f93)"><path fill="#000000" d="M 122.800781 74.792969 L 6.699219 74.792969 C 3.265625 74.792969 0.480469 77.578125 0.480469 81.011719 C 0.480469 84.449219 3.265625 87.234375 6.699219 87.234375 L 122.800781 87.234375 C 126.234375 87.234375 129.019531 84.449219 129.019531 81.011719 C 129.019531 77.578125 126.234375 74.792969 122.800781 74.792969 Z M 122.800781 74.792969 " fill-opacity="1" fill-rule="nonzero"/></g></svg>