<svg xmlns="http://www.w3.org/2000/svg" xmlns:xlink="http://www.w3.org/1999/xlink" width="432" zoomAndPan="magnify" viewBox="0 0 324 323.999988" height="432" preserveAspectRatio="xMidYMid meet" version="1.0"><path fill="#000000" d="M 314.707031 281.410156 C 323.898438 290.601562 323.898438 305.519531 314.707031 314.707031 C 305.519531 323.898438 290.601562 323.898438 281.410156 314.707031 L 161.914062 195.214844 L 42.421875 314.707031 C 33.230469 323.898438 18.3125 323.898438 9.121094 314.707031 C -0.0664062 305.519531 -0.0664062 290.601562 9.121094 281.410156 L 128.617188 161.914062 L 9.121094 42.421875 C -0.0664062 33.230469 -0.0664062 18.3125 9.121094 9.121094 C 18.3125 -0.0664062 33.230469 -0.0664062 42.421875 9.121094 L 161.914062 128.617188 L 281.410156 9.121094 C 290.597656 -0.0664062 305.519531 -0.0664062 314.707031 9.121094 C 323.898438 18.3125 323.898438 33.230469 314.707031 42.421875 L 195.214844 161.914062 Z M 314.707031 281.410156 " fill-opacity="1" fill-rule="nonzero"/></svg>