<svg xmlns="http://www.w3.org/2000/svg" xmlns:xlink="http://www.w3.org/1999/xlink" width="172" zoomAndPan="magnify" viewBox="0 0 129 113.249998" height="151" preserveAspectRatio="xMidYMid meet" version="1.0"><defs><clipPath id="abcabb4357"><path d="M 0.425781 0 L 128.574219 0 L 128.574219 112.503906 L 0.425781 112.503906 Z M 0.425781 0 " clip-rule="nonzero"/></clipPath></defs><g clip-path="url(#abcabb4357)"><path fill="#0d0d0d" d="M 113.234375 39.640625 C 111.480469 28.710938 105.9375 18.734375 97.535156 11.511719 C 88.976562 4.105469 77.996094 0.0429688 66.625 0.0429688 L 63.121094 0.0429688 C 51.363281 0.0429688 40.074219 4.386719 31.386719 12.28125 C 23.472656 19.457031 18.1875 29.175781 16.511719 39.667969 C 7.589844 39.976562 0.425781 47.328125 0.425781 56.328125 L 0.425781 63.195312 C 0.425781 72.425781 7.925781 79.910156 17.15625 79.910156 L 18.753906 79.910156 C 23.367188 79.910156 27.105469 76.179688 27.105469 71.578125 L 27.105469 47.972656 C 27.105469 44.320312 24.761719 41.132812 21.304688 40.050781 C 22.878906 30.769531 27.570312 22.207031 34.609375 15.828125 C 42.445312 8.734375 52.550781 4.824219 63.121094 4.824219 L 66.625 4.824219 C 76.78125 4.824219 86.605469 8.449219 94.285156 15.03125 C 101.789062 21.460938 106.789062 30.308594 108.414062 40.027344 C 104.960938 41.132812 102.613281 44.296875 102.613281 47.945312 L 102.613281 71.550781 C 102.613281 75.410156 105.347656 78.804688 109.085938 79.679688 L 109.136719 82.582031 C 109.136719 93.410156 100.320312 102.203125 89.464844 102.203125 L 83.046875 102.203125 C 82.429688 99.039062 79.667969 96.726562 76.394531 96.726562 L 65.441406 96.726562 C 61.703125 96.726562 58.660156 99.761719 58.660156 103.488281 L 58.660156 105.699219 C 58.660156 109.429688 61.703125 112.464844 65.441406 112.464844 L 76.394531 112.464844 C 79.695312 112.464844 82.453125 110.148438 83.046875 106.988281 L 89.464844 106.988281 C 96.015625 106.988281 102.148438 104.441406 106.789062 99.8125 C 111.429688 95.183594 113.980469 89.039062 113.980469 82.507812 L 113.929688 79.832031 C 122.617188 79.164062 129.320312 71.988281 129.320312 63.195312 L 129.320312 56.304688 C 129.320312 47.328125 122.152344 39.976562 113.234375 39.640625 Z M 22.3125 47.972656 L 22.3125 71.578125 C 22.3125 73.53125 20.738281 75.101562 18.777344 75.101562 L 17.179688 75.101562 C 10.605469 75.101562 5.269531 69.777344 5.269531 63.222656 L 5.269531 56.328125 C 5.269531 49.851562 10.476562 44.578125 16.949219 44.449219 C 17.050781 44.449219 17.15625 44.449219 17.285156 44.449219 L 18.984375 44.550781 C 20.402344 44.628906 21.691406 45.53125 22.128906 46.867188 C 22.234375 47.199219 22.3125 47.585938 22.3125 47.972656 Z M 78.355469 105.699219 C 78.355469 106.78125 77.480469 107.65625 76.394531 107.65625 L 65.441406 107.65625 C 64.355469 107.65625 63.480469 106.78125 63.480469 105.699219 L 63.480469 103.488281 C 63.480469 102.410156 64.355469 101.535156 65.441406 101.535156 L 76.394531 101.535156 C 77.480469 101.535156 78.355469 102.410156 78.355469 103.488281 Z M 124.5 63.195312 C 124.5 69.753906 119.164062 75.074219 112.589844 75.074219 L 110.992188 75.074219 C 109.03125 75.074219 107.460938 73.507812 107.460938 71.550781 L 107.460938 47.945312 C 107.460938 46.070312 108.980469 44.5 110.835938 44.425781 C 111.042969 44.449219 111.25 44.449219 111.429688 44.425781 C 111.480469 44.425781 111.507812 44.425781 111.558594 44.398438 L 112.617188 44.398438 C 119.191406 44.398438 124.527344 49.722656 124.527344 56.277344 L 124.527344 63.195312 Z M 124.5 63.195312 " fill-opacity="1" fill-rule="nonzero"/></g><path fill="#0d0d0d" d="M 62.605469 91.144531 C 62.9375 92.125 63.867188 92.765625 64.871094 92.765625 C 65.902344 92.765625 66.804688 92.125 67.140625 91.144531 L 71.808594 77.75 C 84.722656 77.261719 95.164062 66.511719 95.164062 53.550781 L 95.164062 41.570312 C 95.164062 28.222656 84.257812 17.347656 70.878906 17.347656 L 58.867188 17.347656 C 45.488281 17.347656 34.582031 28.222656 34.582031 41.570312 L 34.582031 53.550781 C 34.582031 66.511719 45.023438 77.261719 57.9375 77.75 Z M 39.402344 53.527344 L 39.402344 41.542969 C 39.402344 30.847656 48.140625 22.128906 58.867188 22.128906 L 70.878906 22.128906 C 81.601562 22.128906 90.34375 30.847656 90.34375 41.542969 L 90.34375 53.527344 C 90.34375 64.222656 81.601562 72.941406 70.878906 72.941406 L 70.078125 72.941406 C 69.046875 72.941406 68.148438 73.582031 67.8125 74.5625 L 64.871094 82.996094 L 61.933594 74.535156 C 61.597656 73.558594 60.671875 72.914062 59.664062 72.914062 L 58.867188 72.914062 C 48.140625 72.941406 39.402344 64.222656 39.402344 53.527344 Z M 39.402344 53.527344 " fill-opacity="1" fill-rule="nonzero"/><path fill="#0d0d0d" d="M 47.164062 50.980469 L 45.667969 52.421875 L 45.667969 54.246094 L 54.765625 54.246094 L 54.765625 51.726562 L 49.972656 51.726562 C 52.601562 49.207031 54.457031 47.226562 54.457031 44.628906 C 54.457031 42.546875 53.089844 40.4375 50.074219 40.4375 C 48.632812 40.4375 47.238281 40.925781 46.183594 41.828125 L 45.875 42.109375 L 46.878906 44.347656 L 47.445312 43.882812 C 47.859375 43.550781 48.707031 42.957031 49.738281 42.957031 C 51.003906 42.957031 51.671875 43.601562 51.671875 44.835938 C 51.621094 46.480469 50.308594 48 47.164062 50.980469 Z M 47.164062 50.980469 " fill-opacity="1" fill-rule="nonzero"/><path fill="#0d0d0d" d="M 64.433594 54.273438 L 64.433594 50.878906 L 66.1875 50.878906 L 66.1875 48.433594 L 64.433594 48.433594 L 64.433594 40.695312 L 61.753906 40.695312 L 55.902344 49.027344 L 55.902344 50.878906 L 61.703125 50.878906 L 61.703125 54.273438 Z M 59.226562 48.433594 L 61.675781 45.042969 L 61.703125 45.015625 L 61.703125 48.460938 L 59.226562 48.460938 Z M 59.226562 48.433594 " fill-opacity="1" fill-rule="nonzero"/><path fill="#0d0d0d" d="M 74.460938 40.027344 L 71.960938 40.027344 L 66.160156 55.042969 L 68.636719 55.042969 Z M 74.460938 40.027344 " fill-opacity="1" fill-rule="nonzero"/><path fill="#0d0d0d" d="M 84.078125 42.496094 L 84.078125 40.695312 L 75.082031 40.695312 L 75.082031 43.214844 L 80.882812 43.214844 L 75.441406 54.273438 L 78.433594 54.273438 Z M 84.078125 42.496094 " fill-opacity="1" fill-rule="nonzero"/></svg>