<svg xmlns="http://www.w3.org/2000/svg" xmlns:xlink="http://www.w3.org/1999/xlink" width="432" zoomAndPan="magnify" viewBox="0 0 324 323.999988" height="432" preserveAspectRatio="xMidYMid meet" version="1.0"><path fill="#868686" d="M 173.324219 7.65625 C 181.046875 0 193.957031 2.078125 198.957031 11.746094 C 203.042969 19.597656 212.582031 22.648438 220.433594 18.753906 C 230.167969 13.886719 241.785156 19.792969 243.535156 30.5625 C 245.027344 39.257812 253.140625 45.230469 261.835938 43.867188 C 272.542969 42.242188 281.820312 51.457031 280.132812 62.164062 C 278.769531 70.859375 284.742188 79.035156 293.4375 80.464844 C 304.144531 82.28125 310.046875 93.832031 305.246094 103.566406 C 301.289062 111.417969 304.402344 121.019531 312.253906 125.042969 C 321.921875 130.042969 323.933594 142.953125 316.34375 150.675781 C 310.179688 156.90625 310.179688 167.027344 316.34375 173.324219 C 324 181.046875 321.921875 193.957031 312.253906 198.957031 C 304.402344 203.042969 301.351562 212.582031 305.246094 220.433594 C 310.113281 230.167969 304.207031 241.785156 293.4375 243.535156 C 284.742188 245.027344 278.769531 253.140625 280.132812 261.835938 C 281.757812 272.542969 272.542969 281.820312 261.835938 280.132812 C 253.140625 278.769531 244.964844 284.742188 243.535156 293.4375 C 241.71875 304.144531 230.167969 310.046875 220.433594 305.246094 C 212.582031 301.289062 202.980469 304.402344 198.957031 312.253906 C 193.957031 321.921875 181.046875 323.933594 173.324219 316.34375 C 167.09375 310.179688 156.972656 310.179688 150.675781 316.34375 C 142.953125 324 130.042969 321.921875 125.042969 312.253906 C 120.957031 304.402344 111.417969 301.351562 103.566406 305.246094 C 93.832031 310.113281 82.214844 304.207031 80.464844 293.4375 C 78.972656 284.742188 70.859375 278.769531 62.164062 280.132812 C 51.457031 281.757812 42.179688 272.542969 43.867188 261.835938 C 45.230469 253.140625 39.257812 244.964844 30.5625 243.535156 C 19.855469 241.71875 13.953125 230.167969 18.753906 220.433594 C 22.710938 212.582031 19.597656 202.980469 11.746094 198.957031 C 2.078125 193.957031 0.0664062 181.046875 7.65625 173.324219 C 13.820312 167.09375 13.820312 156.972656 7.65625 150.675781 C 0 142.953125 2.078125 130.042969 11.746094 125.042969 C 19.597656 120.957031 22.648438 111.417969 18.753906 103.566406 C 13.886719 93.832031 19.792969 82.214844 30.5625 80.464844 C 39.257812 78.972656 45.230469 70.859375 43.867188 62.164062 C 42.242188 51.457031 51.457031 42.179688 62.164062 43.867188 C 70.859375 45.230469 79.035156 39.257812 80.464844 30.5625 C 82.28125 19.855469 93.832031 13.953125 103.566406 18.753906 C 111.417969 22.710938 121.019531 19.597656 125.042969 11.746094 C 130.042969 2.078125 142.953125 0.0664062 150.675781 7.65625 C 156.972656 13.820312 167.09375 13.820312 173.324219 7.65625 Z M 173.324219 7.65625 " fill-opacity="1" fill-rule="nonzero"/><path fill="#ffffff" d="M 273.0625 152.296875 C 273.0625 151.324219 272.800781 150.289062 272.28125 149.445312 L 267.480469 141.332031 L 251.839844 115.050781 C 250.867188 113.363281 249.050781 112.324219 247.105469 112.324219 L 219.65625 112.324219 L 219.65625 100.90625 C 219.65625 97.855469 217.191406 95.390625 214.140625 95.390625 L 98.957031 95.390625 C 95.910156 95.390625 93.441406 97.855469 93.441406 100.90625 C 93.441406 103.957031 95.910156 106.421875 98.957031 106.421875 L 208.625 106.421875 L 208.625 117.90625 C 208.625 117.90625 208.625 117.90625 208.625 117.972656 L 208.625 152.296875 C 208.625 155.347656 211.089844 157.816406 214.140625 157.816406 L 261.964844 157.816406 L 261.964844 197.527344 L 238.863281 197.527344 C 236.527344 185.585938 226.015625 176.566406 213.359375 176.566406 C 200.773438 176.566406 190.261719 185.652344 187.859375 197.527344 L 171.117188 197.527344 C 168.78125 185.585938 158.269531 176.566406 145.613281 176.566406 C 132.960938 176.566406 122.515625 185.652344 120.113281 197.527344 L 98.894531 197.527344 C 95.84375 197.527344 93.378906 199.992188 93.378906 203.042969 C 93.378906 206.09375 95.84375 208.558594 98.894531 208.558594 L 120.308594 208.558594 C 123.03125 219.980469 133.285156 228.546875 145.550781 228.546875 C 157.816406 228.546875 168.066406 220.042969 170.792969 208.558594 L 187.988281 208.558594 C 190.714844 219.980469 200.96875 228.546875 213.230469 228.546875 C 225.496094 228.546875 235.75 220.042969 238.472656 208.558594 L 267.285156 208.558594 C 268.777344 208.558594 270.140625 207.976562 271.242188 206.9375 C 272.28125 205.898438 272.867188 204.472656 272.867188 202.980469 Z M 145.746094 217.515625 C 137.503906 217.515625 130.820312 210.765625 130.820312 202.589844 C 130.820312 194.414062 137.570312 187.664062 145.746094 187.664062 C 153.726562 187.664062 160.28125 193.957031 160.667969 201.875 C 160.605469 202.265625 160.539062 202.652344 160.539062 203.109375 C 160.539062 203.433594 160.605469 203.820312 160.667969 204.148438 C 159.761719 211.609375 153.402344 217.515625 145.746094 217.515625 Z M 213.425781 217.515625 C 205.183594 217.515625 198.5 210.765625 198.5 202.589844 C 198.5 194.414062 205.25 187.664062 213.425781 187.664062 C 221.601562 187.664062 228.351562 194.414062 228.351562 202.589844 C 228.351562 210.765625 221.667969 217.515625 213.425781 217.515625 Z M 219.65625 123.359375 L 243.859375 123.359375 L 257.746094 146.71875 L 219.589844 146.71875 L 219.589844 123.359375 Z M 71.378906 126.210938 C 71.378906 123.421875 73.652344 121.085938 76.507812 121.085938 L 122.449219 121.085938 C 125.238281 121.085938 127.574219 123.359375 127.574219 126.210938 C 127.574219 129.066406 125.304688 131.339844 122.449219 131.339844 L 76.507812 131.339844 C 73.652344 131.339844 71.378906 129.066406 71.378906 126.210938 Z M 134.066406 156.515625 L 44.191406 156.515625 C 41.398438 156.515625 39.0625 154.246094 39.0625 151.390625 C 39.0625 148.535156 41.335938 146.265625 44.191406 146.265625 L 134.066406 146.265625 C 136.855469 146.265625 139.191406 148.535156 139.191406 151.390625 C 139.191406 154.246094 136.855469 156.515625 134.066406 156.515625 Z M 106.550781 181.695312 L 65.539062 181.695312 C 62.75 181.695312 60.414062 179.421875 60.414062 176.566406 C 60.414062 173.710938 62.683594 171.441406 65.539062 171.441406 L 106.550781 171.441406 C 109.339844 171.441406 111.675781 173.710938 111.675781 176.566406 C 111.675781 179.421875 109.472656 181.695312 106.550781 181.695312 Z M 106.550781 181.695312 " fill-opacity="1" fill-rule="nonzero"/></svg>