<svg xmlns="http://www.w3.org/2000/svg" xmlns:xlink="http://www.w3.org/1999/xlink" width="172" zoomAndPan="magnify" viewBox="0 0 129 65.249999" height="87" preserveAspectRatio="xMidYMid meet" version="1.0"><defs><clipPath id="ef8e2dbff2"><path d="M 89 11 L 128.265625 11 L 128.265625 54 L 89 54 Z M 89 11 " clip-rule="nonzero"/></clipPath><clipPath id="fbc180d0bc"><path d="M 0.734375 0 L 95 0 L 95 54 L 0.734375 54 Z M 0.734375 0 " clip-rule="nonzero"/></clipPath><clipPath id="47081f834a"><path d="M 96 43 L 119 43 L 119 64.507812 L 96 64.507812 Z M 96 43 " clip-rule="nonzero"/></clipPath><clipPath id="4d71266faa"><path d="M 27 43 L 49 43 L 49 64.507812 L 27 64.507812 Z M 27 43 " clip-rule="nonzero"/></clipPath></defs><g clip-path="url(#ef8e2dbff2)"><path fill="#231f20" d="M 98.46875 16.0625 L 111.839844 16.0625 L 121.660156 30.1875 L 96.871094 30.1875 Z M 94.109375 11.671875 L 89.332031 53.847656 L 95.1875 53.847656 C 95.1875 53.84375 95.1875 53.84375 95.1875 53.84375 C 95.558594 50.582031 97.203125 47.457031 99.765625 45.152344 C 102.328125 42.847656 105.597656 41.550781 108.851562 41.550781 C 112.105469 41.550781 115.082031 42.847656 117.121094 45.152344 C 119.164062 47.457031 120.101562 50.582031 119.734375 53.84375 C 119.734375 53.84375 119.730469 53.84375 119.730469 53.847656 L 125.585938 53.847656 L 128.265625 30.1875 L 115.398438 11.671875 L 94.109375 11.671875 " fill-opacity="1" fill-rule="nonzero"/></g><g clip-path="url(#fbc180d0bc)"><path fill="#231f20" d="M 21.203125 0.125 L 20.476562 6.550781 L 32.070312 6.550781 C 33.308594 6.550781 34.1875 7.546875 34.046875 8.785156 C 33.90625 10.023438 32.800781 11.015625 31.566406 11.015625 L 10.671875 11.015625 C 9.4375 11.015625 8.332031 12.011719 8.191406 13.25 C 8.050781 14.488281 8.929688 15.480469 10.164062 15.480469 L 46.371094 15.480469 C 47.605469 15.480469 48.488281 16.476562 48.347656 17.714844 C 48.207031 18.953125 47.101562 19.945312 45.867188 19.945312 L 17.203125 19.945312 C 15.96875 19.945312 14.863281 20.945312 14.722656 22.179688 C 14.582031 23.417969 15.464844 24.414062 16.699219 24.414062 L 32.75 24.414062 C 33.984375 24.414062 34.867188 25.410156 34.726562 26.644531 C 34.585938 27.882812 33.480469 28.878906 32.246094 28.878906 L 3.359375 28.878906 C 2.121094 28.878906 1.015625 29.875 0.875 31.109375 C 0.734375 32.347656 1.617188 33.34375 2.851562 33.34375 L 17.441406 33.34375 L 15.117188 53.847656 L 25.914062 53.847656 C 25.914062 53.84375 25.914062 53.84375 25.914062 53.84375 C 26.28125 50.582031 27.929688 47.457031 30.492188 45.152344 C 33.054688 42.847656 36.324219 41.550781 39.578125 41.550781 C 42.832031 41.550781 45.808594 42.847656 47.847656 45.152344 C 49.886719 47.457031 50.828125 50.582031 50.457031 53.84375 C 50.457031 53.84375 50.457031 53.84375 50.457031 53.847656 L 88.207031 53.847656 L 94.292969 0.125 L 21.203125 0.125 " fill-opacity="1" fill-rule="nonzero"/></g><g clip-path="url(#47081f834a)"><path fill="#231f20" d="M 108.046875 48.652344 C 109.421875 48.652344 110.679688 49.199219 111.542969 50.171875 C 112.402344 51.144531 112.800781 52.464844 112.644531 53.84375 C 112.488281 55.21875 111.792969 56.539062 110.710938 57.511719 C 109.628906 58.484375 108.246094 59.035156 106.871094 59.035156 C 104.011719 59.035156 101.953125 56.710938 102.277344 53.84375 C 102.433594 52.464844 103.128906 51.144531 104.210938 50.171875 C 105.292969 49.199219 106.675781 48.652344 108.046875 48.652344 Z M 108.660156 43.269531 C 105.859375 43.269531 103.046875 44.382812 100.84375 46.367188 C 98.636719 48.347656 97.21875 51.039062 96.902344 53.84375 C 96.585938 56.648438 97.394531 59.335938 99.148438 61.320312 C 100.902344 63.300781 103.460938 64.414062 106.261719 64.414062 C 109.0625 64.414062 111.875 63.300781 114.078125 61.320312 C 116.28125 59.335938 117.699219 56.648438 118.015625 53.84375 C 118.335938 51.039062 117.527344 48.347656 115.773438 46.367188 C 114.015625 44.382812 111.457031 43.269531 108.660156 43.269531 " fill-opacity="1" fill-rule="nonzero"/></g><g clip-path="url(#4d71266faa)"><path fill="#231f20" d="M 38.773438 48.652344 C 40.148438 48.652344 41.402344 49.199219 42.265625 50.171875 C 43.128906 51.144531 43.523438 52.464844 43.367188 53.84375 C 43.210938 55.21875 42.515625 56.539062 41.433594 57.511719 C 40.351562 58.484375 38.972656 59.035156 37.597656 59.035156 C 34.734375 59.035156 32.675781 56.710938 33 53.84375 C 33.15625 52.464844 33.851562 51.144531 34.933594 50.171875 C 36.019531 49.199219 37.398438 48.652344 38.773438 48.652344 Z M 39.382812 43.269531 C 36.582031 43.269531 33.769531 44.382812 31.566406 46.367188 C 29.363281 48.347656 27.945312 51.039062 27.628906 53.84375 C 27.308594 56.648438 28.117188 59.335938 29.871094 61.320312 C 31.628906 63.300781 34.1875 64.414062 36.988281 64.414062 C 39.785156 64.414062 42.597656 63.300781 44.804688 61.320312 C 47.007812 59.335938 48.425781 56.648438 48.742188 53.84375 C 49.058594 51.039062 48.253906 48.347656 46.496094 46.367188 C 44.742188 44.382812 42.183594 43.269531 39.382812 43.269531 " fill-opacity="1" fill-rule="nonzero"/></g><path fill="#231f20" d="M 40.019531 53.84375 C 39.964844 54.328125 39.71875 54.796875 39.335938 55.140625 C 38.953125 55.484375 38.460938 55.679688 37.976562 55.679688 C 37.492188 55.679688 37.046875 55.484375 36.742188 55.140625 C 36.4375 54.796875 36.296875 54.328125 36.351562 53.84375 C 36.464844 52.828125 37.378906 52.007812 38.394531 52.007812 C 39.40625 52.007812 40.132812 52.828125 40.019531 53.84375 " fill-opacity="1" fill-rule="nonzero"/><path fill="#231f20" d="M 109.292969 53.84375 C 109.238281 54.328125 108.992188 54.796875 108.609375 55.140625 C 108.226562 55.484375 107.738281 55.679688 107.253906 55.679688 C 106.765625 55.679688 106.320312 55.484375 106.015625 55.140625 C 105.710938 54.796875 105.570312 54.328125 105.628906 53.84375 C 105.742188 52.828125 106.65625 52.007812 107.667969 52.007812 C 108.679688 52.007812 109.410156 52.828125 109.292969 53.84375 " fill-opacity="1" fill-rule="nonzero"/></svg>