<svg xmlns="http://www.w3.org/2000/svg" width="20" height="20" viewBox="0 0 20 20" fill="none"><title>Follow us on LinkedIn</title><path d="M16.8413 1.66663H2.63879C1.95846 1.66663 1.40833 2.20374 1.40833 2.8678V17.1289C1.40833 17.7929 1.95846 18.3333 2.63879 18.3333H16.8413C17.5216 18.3333 18.075 17.7929 18.075 17.1321V2.8678C18.075 2.20374 17.5216 1.66663 16.8413 1.66663ZM6.35299 15.8691H3.87903V7.91337H6.35299V15.8691ZM5.11601 6.82939C4.32174 6.82939 3.68046 6.18811 3.68046 5.39709C3.68046 4.60608 4.32174 3.9648 5.11601 3.9648C5.90702 3.9648 6.5483 4.60608 6.5483 5.39709C6.5483 6.18486 5.90702 6.82939 5.11601 6.82939ZM15.6108 15.8691H13.1401V12.0019C13.1401 11.0807 13.1238 9.89254 11.8543 9.89254C10.5685 9.89254 10.3732 10.8984 10.3732 11.9368V15.8691H7.90572V7.91337H10.2755V9.00061H10.3081C10.6368 8.37561 11.4441 7.7148 12.6453 7.7148C15.1486 7.7148 15.6108 9.36194 15.6108 11.5039V15.8691Z" fill="var(--color--charcoal-600)"></path></svg>