<svg xmlns="http://www.w3.org/2000/svg" xmlns:xlink="http://www.w3.org/1999/xlink" width="432" zoomAndPan="magnify" viewBox="0 0 324 323.999988" height="432" preserveAspectRatio="xMidYMid meet" version="1.0"><defs><clipPath id="50bbb5d8fb"><path d="M 113.398438 113.398438 L 210.601562 113.398438 L 210.601562 210.601562 L 113.398438 210.601562 Z M 113.398438 113.398438 " clip-rule="nonzero"/></clipPath></defs><g clip-path="url(#50bbb5d8fb)"><path fill="#bfbdbc" d="M 113.398438 113.398438 L 210.601562 113.398438 L 210.601562 210.601562 L 113.398438 210.601562 Z M 113.398438 113.398438 " fill-opacity="1" fill-rule="nonzero"/></g><path fill="#bfbdbc" d="M 324 162 C 324 251.46875 251.46875 324 162 324 C 72.535156 324 0.0078125 251.46875 0.0078125 162 C 0.0078125 72.535156 72.535156 0.00390625 162 0.00390625 C 251.46875 0.00390625 324 72.535156 324 162 " fill-opacity="1" fill-rule="nonzero"/><path fill="#ffffff" d="M 219.546875 110.792969 C 219.546875 142.6875 193.6875 168.542969 161.792969 168.542969 C 129.898438 168.542969 104.042969 142.6875 104.042969 110.792969 C 104.042969 78.894531 129.898438 53.039062 161.792969 53.039062 C 193.6875 53.039062 219.546875 78.894531 219.546875 110.792969 " fill-opacity="1" fill-rule="nonzero"/><path fill="#ffffff" d="M 161.792969 316.308594 C 202.660156 316.308594 239.988281 301.167969 268.488281 276.199219 C 259.640625 218.433594 233.589844 178.34375 161.792969 178.34375 C 92.015625 178.34375 65.003906 218.601562 55.515625 276.570312 C 83.960938 301.320312 121.128906 316.308594 161.792969 316.308594 " fill-opacity="1" fill-rule="nonzero"/></svg>