<svg xmlns="http://www.w3.org/2000/svg" xmlns:xlink="http://www.w3.org/1999/xlink" width="432" zoomAndPan="magnify" viewBox="0 0 324 323.999988" height="432" preserveAspectRatio="xMidYMid meet" version="1.0"><path fill="#000000" d="M 207.132812 266.429688 L 233.226562 252.207031 C 234.835938 249.011719 235.683594 245.472656 235.683594 241.882812 C 235.683594 237.714844 232.289062 234.320312 228.113281 234.320312 C 226.742188 234.320312 225.394531 234.695312 224.21875 235.398438 L 189.261719 256.355469 C 190.234375 258.019531 190.800781 259.941406 190.800781 261.988281 C 190.800781 266.484375 189.746094 270.738281 187.875 274.519531 C 194.535156 272.472656 200.996094 269.773438 207.132812 266.429688 Z M 207.132812 266.429688 " fill-opacity="1" fill-rule="nonzero"/><path fill="#000000" d="M 250.324219 256.742188 C 249.023438 256.742188 247.734375 257.074219 246.589844 257.695312 L 212.503906 276.273438 C 198.628906 283.835938 183.265625 288.46875 167.554688 289.898438 C 165.878906 290.207031 164.152344 290.378906 162.386719 290.378906 L 128.125 290.378906 C 119.390625 290.378906 111.179688 293.777344 105.003906 299.945312 L 97.070312 292.019531 C 105.363281 283.730469 116.394531 279.167969 128.125 279.167969 L 157.140625 279.167969 C 160.113281 279.167969 163.078125 279.027344 166.035156 278.773438 C 173.769531 277.097656 179.582031 270.210938 179.582031 261.988281 L 103.203125 256.898438 C 101.636719 256.796875 100.050781 256.742188 98.488281 256.742188 C 83.332031 256.742188 68.308594 261.722656 56.152344 270.765625 L 56.152344 314.609375 L 72.652344 321.203125 C 77.3125 323.066406 82.21875 324.011719 87.238281 324.011719 L 144.820312 324.011719 C 170.152344 324.011719 194.804688 316.773438 216.117188 303.089844 L 248.386719 282.359375 C 254.484375 278.445312 258.125 271.78125 258.125 264.539062 C 258.125 260.242188 254.628906 256.742188 250.324219 256.742188 Z M 250.324219 256.742188 " fill-opacity="1" fill-rule="nonzero"/><path fill="#000000" d="M 0.0507812 256.742188 L 44.933594 256.742188 L 44.933594 324.011719 L 0.0507812 324.011719 Z M 0.0507812 256.742188 " fill-opacity="1" fill-rule="nonzero"/><path fill="#000000" d="M 124.351562 69.96875 C 128.25 68.996094 132.085938 67.800781 135.855469 66.414062 C 127.140625 61.964844 116.738281 61.433594 107.453125 65.339844 C 90.351562 72.53125 82.292969 92.277344 89.480469 109.367188 L 89.496094 109.402344 C 96.703125 126.484375 116.472656 134.527344 133.574219 127.335938 C 141.265625 124.101562 147.335938 118.214844 150.847656 110.886719 C 149.894531 110.960938 148.9375 111 147.980469 111 L 146.179688 111 C 133.597656 111 121.917969 104.753906 114.9375 94.292969 C 113.183594 91.664062 112.257812 88.605469 112.257812 85.445312 C 112.257812 78.113281 117.230469 71.75 124.351562 69.96875 Z M 124.351562 69.96875 " fill-opacity="1" fill-rule="nonzero"/><path fill="#000000" d="M 123.476562 85.445312 C 123.476562 86.382812 123.753906 87.292969 124.273438 88.074219 C 129.167969 95.410156 137.359375 99.789062 146.179688 99.789062 L 147.980469 99.789062 C 152.917969 99.789062 157.746094 98.40625 161.933594 95.789062 L 201.71875 70.945312 L 208.878906 74.527344 C 218.246094 79.203125 229.472656 78.503906 238.183594 72.703125 L 244.40625 82.03125 C 232.355469 90.058594 216.820312 91.027344 203.863281 84.554688 L 202.328125 83.785156 L 171.921875 102.773438 L 184.832031 133.421875 L 238.261719 133.421875 C 243.28125 133.421875 248.1875 132.476562 252.847656 130.617188 L 269.347656 124.023438 L 269.347656 53.132812 L 262.753906 50.5 C 251.519531 46.007812 239.691406 43.734375 227.59375 43.734375 C 211.800781 43.734375 196.125 47.726562 182.261719 55.28125 L 156.203125 69.484375 C 147.019531 74.488281 137.21875 78.3125 127.070312 80.847656 C 124.953125 81.375 123.476562 83.265625 123.476562 85.445312 Z M 123.476562 85.445312 " fill-opacity="1" fill-rule="nonzero"/><path fill="#000000" d="M 186.363281 165.953125 L 180.109375 151.109375 C 173.640625 156.035156 170.324219 164.164062 171.503906 172.203125 Z M 186.363281 165.953125 " fill-opacity="1" fill-rule="nonzero"/><path fill="#000000" d="M 118.058594 177.203125 L 124.3125 192.050781 L 139.171875 185.800781 C 134.242188 179.339844 126.105469 176.023438 118.058594 177.203125 Z M 118.058594 177.203125 " fill-opacity="1" fill-rule="nonzero"/><path fill="#000000" d="M 122.96875 15.472656 L 116.449219 0 L 101.539062 6.433594 C 106.429688 13.183594 114.742188 16.675781 122.96875 15.472656 Z M 122.96875 15.472656 " fill-opacity="1" fill-rule="nonzero"/><path fill="#000000" d="M 175.664062 140.554688 L 163.050781 110.613281 C 158.984375 122.753906 149.929688 132.621094 137.925781 137.667969 C 132.257812 140.050781 126.371094 141.179688 120.574219 141.183594 C 113.746094 141.183594 107.050781 139.609375 100.988281 136.6875 L 113.613281 166.652344 C 120.375 165.046875 127.453125 165.570312 134.023438 168.242188 C 140.589844 170.917969 146.019531 175.488281 149.734375 181.359375 L 160.945312 176.644531 C 159.339844 169.886719 159.863281 162.8125 162.539062 156.25 C 165.214844 149.691406 169.789062 144.269531 175.664062 140.554688 Z M 175.664062 140.554688 " fill-opacity="1" fill-rule="nonzero"/><path fill="#000000" d="M 280.566406 54.945312 L 325.449219 54.945312 L 325.449219 122.210938 L 280.566406 122.210938 Z M 280.566406 54.945312 " fill-opacity="1" fill-rule="nonzero"/><path fill="#000000" d="M 77.988281 82.089844 C 81.953125 70.300781 90.753906 60.199219 103.101562 55.003906 C 115.148438 49.9375 128.609375 50.472656 140.03125 55.972656 L 127.414062 26.023438 C 124.875 26.625 122.292969 26.933594 119.710938 26.933594 C 115.410156 26.933594 111.109375 26.101562 107.003906 24.429688 C 100.304688 21.699219 94.785156 17 91.066406 10.957031 L 80.011719 15.726562 C 81.707031 22.574219 81.207031 29.761719 78.488281 36.421875 C 75.8125 42.984375 71.238281 48.40625 65.363281 52.117188 Z M 77.988281 82.089844 " fill-opacity="1" fill-rule="nonzero"/><path fill="#000000" d="M 44.820312 43.398438 L 32.601562 53.902344 L 43.113281 66.113281 C 47.757812 59.441406 48.414062 50.6875 44.820312 43.398438 Z M 44.820312 43.398438 " fill-opacity="1" fill-rule="nonzero"/><path fill="#000000" d="M 33.683594 72.351562 L 24.554688 87.921875 L 70 114.519531 Z M 33.683594 72.351562 " fill-opacity="1" fill-rule="nonzero"/><path fill="#000000" d="M 57.261719 61.789062 C 56.027344 66.570312 53.757812 70.992188 50.589844 74.792969 L 74.375 102.414062 Z M 57.261719 61.789062 " fill-opacity="1" fill-rule="nonzero"/><path fill="#000000" d="M 69.488281 20.265625 L 54.644531 26.671875 L 60.917969 41.566406 C 67.441406 36.597656 70.753906 28.375 69.488281 20.265625 Z M 69.488281 20.265625 " fill-opacity="1" fill-rule="nonzero"/><path fill="#000000" d="M 265.378906 168.695312 L 273.316406 176.625 L 286.15625 163.792969 C 285.707031 187.910156 278.316406 211.085938 264.71875 230.960938 L 273.980469 237.289062 C 288.871094 215.53125 296.933594 190.148438 297.378906 163.75 L 310.261719 176.625 L 318.199219 168.695312 L 291.789062 142.3125 Z M 265.378906 168.695312 " fill-opacity="1" fill-rule="nonzero"/><path fill="#000000" d="M 57.039062 192.0625 L 47.804688 206.476562 C 42.171875 192.183594 39.320312 177.085938 39.320312 161.449219 C 39.320312 148.589844 41.292969 135.917969 45.179688 123.789062 L 34.496094 120.371094 C 30.25 133.605469 28.101562 147.425781 28.101562 161.449219 C 28.101562 177.589844 30.898438 193.210938 36.40625 208.058594 L 18.960938 201.089844 L 14.796875 211.5 L 49.121094 225.214844 L 66.488281 198.105469 Z M 57.039062 192.0625 " fill-opacity="1" fill-rule="nonzero"/></svg>