<svg xmlns="http://www.w3.org/2000/svg" xmlns:xlink="http://www.w3.org/1999/xlink" width="432" zoomAndPan="magnify" viewBox="0 0 324 323.999988" height="432" preserveAspectRatio="xMidYMid meet" version="1.0"><path fill="#000000" d="M 208.25 236.921875 L 287.609375 316.253906 C 295.464844 324.109375 308.226562 324.105469 316.082031 316.25 C 323.9375 308.390625 323.933594 295.628906 316.078125 287.773438 L 236.773438 208.496094 C 252.726562 186.800781 262.15625 160 262.15625 131.019531 C 262.15625 58.707031 203.449219 0 131.140625 0 C 58.828125 0 0.121094 58.707031 0.121094 131.019531 C 0.121094 203.328125 58.828125 262.035156 131.140625 262.035156 C 159.957031 262.035156 186.609375 252.714844 208.25 236.921875 Z M 131.140625 40.269531 C 181.226562 40.269531 221.890625 80.933594 221.890625 131.019531 C 221.890625 181.105469 181.226562 221.769531 131.140625 221.769531 C 81.054688 221.769531 40.390625 181.105469 40.390625 131.019531 C 40.390625 80.933594 81.054688 40.269531 131.140625 40.269531 Z M 131.140625 40.269531 " fill-opacity="1" fill-rule="evenodd"/></svg>