<svg xmlns="http://www.w3.org/2000/svg" xmlns:xlink="http://www.w3.org/1999/xlink" width="157" zoomAndPan="magnify" viewBox="0 0 117.75 129.000003" height="172" preserveAspectRatio="xMidYMid meet" version="1.0"><path fill="#000000" d="M 115.835938 120.460938 L 88.984375 85.03125 C 89.671875 84.289062 90.332031 83.523438 90.96875 82.734375 C 91.605469 81.949219 92.21875 81.144531 92.804688 80.316406 C 93.390625 79.492188 93.949219 78.648438 94.484375 77.789062 C 95.015625 76.929688 95.519531 76.050781 96 75.160156 C 96.476562 74.265625 96.921875 73.359375 97.34375 72.4375 C 97.761719 71.519531 98.152344 70.585938 98.511719 69.640625 C 98.871094 68.691406 99.199219 67.738281 99.5 66.769531 C 99.800781 65.804688 100.066406 64.828125 100.304688 63.84375 C 100.542969 62.863281 100.746094 61.871094 100.921875 60.875 C 101.09375 59.878906 101.238281 58.878906 101.347656 57.871094 C 101.457031 56.867188 101.539062 55.859375 101.582031 54.847656 C 101.628906 53.835938 101.644531 52.828125 101.625 51.816406 C 101.609375 50.804688 101.558594 49.792969 101.476562 48.785156 C 101.394531 47.777344 101.28125 46.773438 101.132812 45.773438 C 100.988281 44.769531 100.8125 43.777344 100.601562 42.785156 C 100.390625 41.796875 100.152344 40.8125 99.878906 39.839844 C 99.609375 38.863281 99.304688 37.898438 98.972656 36.945312 C 98.640625 35.988281 98.277344 35.046875 97.882812 34.113281 C 97.492188 33.179688 97.070312 32.261719 96.617188 31.355469 C 96.164062 30.449219 95.6875 29.558594 95.175781 28.683594 C 94.667969 27.808594 94.132812 26.949219 93.570312 26.109375 C 93.007812 25.269531 92.417969 24.445312 91.804688 23.640625 C 91.1875 22.835938 90.550781 22.054688 89.882812 21.289062 C 89.21875 20.527344 88.53125 19.785156 87.820312 19.066406 C 87.105469 18.34375 86.371094 17.648438 85.617188 16.972656 C 84.859375 16.300781 84.082031 15.652344 83.285156 15.027344 C 82.488281 14.402344 81.671875 13.804688 80.835938 13.234375 C 80 12.660156 79.144531 12.113281 78.277344 11.597656 C 77.40625 11.078125 76.519531 10.585938 75.617188 10.125 C 74.714844 9.664062 73.800781 9.230469 72.871094 8.824219 C 71.941406 8.421875 71 8.046875 70.050781 7.699219 C 69.097656 7.355469 68.132812 7.042969 67.160156 6.757812 C 66.1875 6.472656 65.207031 6.21875 64.21875 6 C 63.226562 5.777344 62.234375 5.585938 61.230469 5.429688 C 60.230469 5.269531 59.226562 5.140625 58.214844 5.046875 C 57.207031 4.953125 56.195312 4.890625 55.183594 4.859375 C 54.167969 4.828125 53.15625 4.828125 52.144531 4.859375 C 51.128906 4.894531 50.117188 4.960938 49.109375 5.054688 C 48.101562 5.152344 47.097656 5.28125 46.09375 5.445312 C 45.09375 5.605469 44.101562 5.796875 43.109375 6.019531 C 42.121094 6.242188 41.140625 6.5 40.167969 6.785156 C 39.199219 7.070312 38.234375 7.386719 37.28125 7.734375 C 36.332031 8.082031 35.390625 8.457031 34.460938 8.863281 C 33.535156 9.269531 32.621094 9.703125 31.71875 10.167969 C 30.816406 10.632812 29.933594 11.125 29.0625 11.644531 C 28.195312 12.164062 27.34375 12.714844 26.507812 13.289062 C 25.671875 13.863281 24.859375 14.460938 24.0625 15.085938 C 23.265625 15.714844 22.488281 16.363281 21.734375 17.039062 C 20.980469 17.714844 20.246094 18.410156 19.535156 19.132812 C 18.824219 19.855469 18.136719 20.597656 17.476562 21.363281 C 16.8125 22.128906 16.171875 22.914062 15.558594 23.71875 C 14.945312 24.523438 14.359375 25.347656 13.796875 26.191406 C 13.238281 27.03125 12.703125 27.890625 12.195312 28.769531 C 11.691406 29.644531 11.210938 30.535156 10.761719 31.441406 C 10.3125 32.347656 9.894531 33.269531 9.5 34.203125 C 9.109375 35.136719 8.75 36.078125 8.417969 37.035156 C 8.085938 37.992188 7.785156 38.957031 7.515625 39.933594 C 7.246094 40.90625 7.007812 41.890625 6.800781 42.878906 C 6.59375 43.871094 6.417969 44.867188 6.273438 45.867188 C 6.128906 46.867188 6.019531 47.875 5.9375 48.882812 C 5.859375 49.890625 5.808594 50.902344 5.792969 51.914062 C 5.777344 52.921875 5.796875 53.933594 5.84375 54.945312 C 5.890625 55.957031 5.972656 56.964844 6.085938 57.96875 C 6.199219 58.972656 6.34375 59.972656 6.519531 60.972656 C 6.695312 61.96875 6.902344 62.957031 7.140625 63.941406 C 7.378906 64.921875 7.652344 65.898438 7.953125 66.863281 C 8.253906 67.828125 8.585938 68.785156 8.945312 69.730469 C 9.308594 70.675781 9.699219 71.605469 10.121094 72.527344 C 10.542969 73.445312 10.992188 74.351562 11.46875 75.246094 C 11.949219 76.136719 12.457031 77.011719 12.988281 77.871094 C 13.523438 78.730469 14.085938 79.574219 14.671875 80.398438 C 15.261719 81.21875 15.875 82.023438 16.515625 82.808594 C 17.152344 83.59375 17.816406 84.359375 18.503906 85.101562 C 19.191406 85.847656 19.902344 86.566406 20.636719 87.265625 C 21.371094 87.960938 22.125 88.636719 22.902344 89.289062 C 23.679688 89.9375 24.472656 90.5625 25.289062 91.164062 C 26.105469 91.761719 26.941406 92.335938 27.792969 92.882812 C 28.644531 93.429688 29.515625 93.949219 30.402344 94.441406 C 31.285156 94.933594 32.1875 95.398438 33.101562 95.832031 C 34.019531 96.269531 34.945312 96.671875 35.886719 97.050781 C 36.828125 97.425781 37.78125 97.773438 38.742188 98.085938 C 39.707031 98.402344 40.675781 98.6875 41.660156 98.945312 C 42.640625 99.199219 43.628906 99.421875 44.625 99.613281 C 45.617188 99.804688 46.617188 99.964844 47.625 100.09375 C 48.628906 100.222656 49.636719 100.316406 50.648438 100.382812 C 51.660156 100.449219 52.675781 100.480469 53.6875 100.480469 C 54.703125 100.480469 55.714844 100.449219 56.726562 100.386719 C 57.738281 100.320312 58.746094 100.226562 59.75 100.097656 C 60.757812 99.972656 61.757812 99.8125 62.753906 99.621094 C 63.75 99.429688 64.738281 99.207031 65.71875 98.957031 C 66.699219 98.703125 67.671875 98.417969 68.636719 98.101562 C 69.597656 97.789062 70.550781 97.441406 71.492188 97.066406 C 72.433594 96.691406 73.363281 96.285156 74.277344 95.851562 C 75.195312 95.417969 76.09375 94.957031 76.980469 94.464844 C 77.867188 93.972656 78.738281 93.453125 79.589844 92.910156 C 80.441406 92.363281 81.277344 91.789062 82.09375 91.191406 L 108.484375 126.019531 C 108.667969 126.261719 108.871094 126.484375 109.101562 126.6875 C 109.328125 126.886719 109.570312 127.066406 109.835938 127.21875 C 110.097656 127.375 110.371094 127.5 110.660156 127.601562 C 110.945312 127.699219 111.242188 127.773438 111.542969 127.8125 C 111.84375 127.855469 112.148438 127.867188 112.449219 127.851562 C 112.753906 127.832031 113.054688 127.785156 113.347656 127.710938 C 113.644531 127.632812 113.929688 127.53125 114.203125 127.398438 C 114.476562 127.265625 114.734375 127.109375 114.976562 126.925781 C 115.21875 126.742188 115.445312 126.539062 115.644531 126.3125 C 115.847656 126.082031 116.027344 125.839844 116.179688 125.578125 C 116.335938 125.316406 116.464844 125.042969 116.5625 124.753906 C 116.664062 124.46875 116.734375 124.175781 116.777344 123.875 C 116.820312 123.570312 116.832031 123.269531 116.8125 122.96875 C 116.796875 122.664062 116.75 122.363281 116.671875 122.070312 C 116.597656 121.777344 116.492188 121.492188 116.359375 121.21875 C 116.226562 120.945312 116.070312 120.6875 115.886719 120.445312 Z M 13.554688 52.652344 C 13.554688 51.339844 13.621094 50.027344 13.75 48.722656 C 13.878906 47.417969 14.070312 46.117188 14.328125 44.832031 C 14.582031 43.542969 14.902344 42.273438 15.285156 41.015625 C 15.664062 39.757812 16.109375 38.523438 16.609375 37.3125 C 17.113281 36.097656 17.675781 34.914062 18.296875 33.753906 C 18.917969 32.597656 19.59375 31.472656 20.324219 30.378906 C 21.054688 29.289062 21.835938 28.234375 22.671875 27.21875 C 23.503906 26.207031 24.386719 25.234375 25.316406 24.304688 C 26.246094 23.375 27.222656 22.496094 28.238281 21.664062 C 29.253906 20.832031 30.3125 20.050781 31.40625 19.320312 C 32.5 18.589844 33.625 17.914062 34.785156 17.296875 C 35.945312 16.675781 37.132812 16.117188 38.347656 15.613281 C 39.566406 15.113281 40.800781 14.671875 42.0625 14.289062 C 43.320312 13.90625 44.59375 13.589844 45.886719 13.332031 C 47.175781 13.078125 48.476562 12.882812 49.785156 12.753906 C 51.09375 12.625 52.40625 12.5625 53.722656 12.5625 C 55.039062 12.5625 56.351562 12.625 57.660156 12.753906 C 58.96875 12.882812 60.269531 13.074219 61.558594 13.332031 C 62.847656 13.589844 64.125 13.90625 65.382812 14.289062 C 66.640625 14.667969 67.878906 15.109375 69.09375 15.613281 C 70.308594 16.117188 71.496094 16.675781 72.65625 17.292969 C 73.816406 17.914062 74.945312 18.585938 76.039062 19.316406 C 77.132812 20.046875 78.1875 20.828125 79.207031 21.660156 C 80.222656 22.492188 81.195312 23.375 82.125 24.300781 C 83.058594 25.230469 83.9375 26.203125 84.773438 27.21875 C 85.609375 28.230469 86.390625 29.285156 87.121094 30.378906 C 87.851562 31.46875 88.527344 32.59375 89.148438 33.75 C 89.769531 34.910156 90.332031 36.09375 90.835938 37.308594 C 91.335938 38.519531 91.78125 39.753906 92.164062 41.011719 C 92.542969 42.269531 92.863281 43.539062 93.121094 44.828125 C 93.375 46.117188 93.570312 47.414062 93.699219 48.71875 C 93.828125 50.027344 93.890625 51.335938 93.890625 52.648438 C 93.890625 53.960938 93.828125 55.269531 93.699219 56.578125 C 93.570312 57.882812 93.375 59.179688 93.121094 60.46875 C 92.863281 61.757812 92.542969 63.027344 92.160156 64.285156 C 91.777344 65.539062 91.335938 66.777344 90.832031 67.988281 C 90.328125 69.203125 89.765625 70.386719 89.148438 71.542969 C 88.527344 72.703125 87.851562 73.828125 87.121094 74.917969 C 86.390625 76.011719 85.605469 77.0625 84.773438 78.078125 C 83.9375 79.09375 83.054688 80.0625 82.125 80.992188 C 81.195312 81.921875 80.21875 82.800781 79.203125 83.632812 C 78.1875 84.46875 77.128906 85.246094 76.035156 85.976562 C 74.941406 86.707031 73.816406 87.378906 72.65625 88 C 71.496094 88.617188 70.304688 89.179688 69.089844 89.679688 C 67.875 90.183594 66.636719 90.625 65.378906 91.003906 C 64.121094 91.386719 62.84375 91.707031 61.554688 91.960938 C 60.265625 92.21875 58.964844 92.410156 57.65625 92.539062 C 56.347656 92.667969 55.035156 92.730469 53.71875 92.730469 C 52.402344 92.730469 51.089844 92.664062 49.78125 92.535156 C 48.472656 92.40625 47.171875 92.214844 45.882812 91.960938 C 44.59375 91.703125 43.320312 91.382812 42.058594 91.003906 C 40.800781 90.621094 39.5625 90.179688 38.347656 89.679688 C 37.132812 89.175781 35.945312 88.613281 34.785156 87.996094 C 33.625 87.378906 32.5 86.703125 31.40625 85.972656 C 30.3125 85.246094 29.257812 84.464844 28.242188 83.632812 C 27.222656 82.796875 26.25 81.917969 25.320312 80.988281 C 24.390625 80.0625 23.507812 79.089844 22.671875 78.074219 C 21.839844 77.0625 21.054688 76.007812 20.324219 74.917969 C 19.59375 73.824219 18.917969 72.699219 18.300781 71.542969 C 17.679688 70.386719 17.117188 69.199219 16.613281 67.988281 C 16.109375 66.777344 15.667969 65.542969 15.285156 64.285156 C 14.902344 63.03125 14.585938 61.757812 14.328125 60.46875 C 14.070312 59.183594 13.878906 57.886719 13.75 56.582031 C 13.621094 55.273438 13.554688 53.964844 13.554688 52.652344 Z M 13.554688 52.652344 " fill-opacity="1" fill-rule="nonzero"/></svg>