<svg xmlns="http://www.w3.org/2000/svg" xmlns:xlink="http://www.w3.org/1999/xlink" width="432" zoomAndPan="magnify" viewBox="0 0 324 323.999988" height="432" preserveAspectRatio="xMidYMid meet" version="1.0"><defs><clipPath id="845a88542f"><path d="M 24.90625 0 L 299 0 L 299 323 L 24.90625 323 Z M 24.90625 0 " clip-rule="nonzero"/></clipPath></defs><g clip-path="url(#845a88542f)"><path fill="#868686" d="M 294.496094 62.191406 C 291.992188 59.351562 288.472656 57.710938 284.769531 57.609375 C 256.035156 56.859375 219.679688 26.136719 195.640625 14.078125 C 180.792969 6.65625 170.988281 1.757812 163.625 0.46875 C 162.863281 0.371094 162.125 0.292969 161.375 0.292969 C 160.621094 0.292969 159.882812 0.371094 159.121094 0.480469 C 151.757812 1.773438 141.957031 6.667969 127.117188 14.089844 C 103.082031 26.136719 66.722656 56.859375 37.992188 57.609375 C 34.285156 57.710938 30.753906 59.363281 28.25 62.191406 C 25.722656 65.023438 24.417969 68.789062 24.605469 72.632812 C 30.777344 198.121094 75.789062 275.78125 154.761719 320.914062 C 156.816406 322.078125 159.09375 322.679688 161.359375 322.679688 C 163.625 322.679688 165.90625 322.078125 167.972656 320.914062 C 246.945312 275.78125 291.941406 198.121094 298.128906 72.632812 C 298.328125 68.789062 297.023438 65.023438 294.496094 62.191406 Z M 231.695312 111.546875 L 165.054688 209.886719 C 162.664062 213.417969 158.90625 215.761719 155.1875 215.761719 C 151.457031 215.761719 147.3125 213.71875 144.695312 211.101562 L 97.722656 164.117188 C 94.53125 160.910156 94.53125 155.714844 97.722656 152.523438 L 109.328125 140.890625 C 112.535156 137.710938 117.742188 137.710938 120.921875 140.890625 L 151.46875 171.441406 L 204.542969 93.105469 C 207.070312 89.371094 212.191406 88.410156 215.933594 90.9375 L 229.519531 100.152344 C 233.25 102.695312 234.226562 107.800781 231.695312 111.546875 Z M 231.695312 111.546875 " fill-opacity="1" fill-rule="nonzero"/></g></svg>