<svg xmlns="http://www.w3.org/2000/svg" xmlns:xlink="http://www.w3.org/1999/xlink" width="432" zoomAndPan="magnify" viewBox="0 0 324 323.999988" height="432" preserveAspectRatio="xMidYMid meet" version="1.0"><path fill="#000000" d="M 162 0 C 159.347656 0 156.699219 0.0664062 154.050781 0.195312 C 151.402344 0.324219 148.757812 0.519531 146.121094 0.78125 C 143.484375 1.039062 140.851562 1.363281 138.230469 1.753906 C 135.605469 2.140625 132.996094 2.59375 130.394531 3.113281 C 127.796875 3.628906 125.210938 4.210938 122.636719 4.855469 C 120.066406 5.5 117.511719 6.207031 114.972656 6.976562 C 112.4375 7.746094 109.921875 8.578125 107.425781 9.46875 C 104.925781 10.363281 102.453125 11.316406 100.003906 12.332031 C 97.554688 13.347656 95.132812 14.421875 92.734375 15.554688 C 90.339844 16.6875 87.972656 17.878906 85.632812 19.128906 C 83.296875 20.378906 80.988281 21.683594 78.714844 23.046875 C 76.441406 24.410156 74.203125 25.828125 71.996094 27.300781 C 69.792969 28.773438 67.625 30.300781 65.496094 31.878906 C 63.367188 33.460938 61.277344 35.089844 59.226562 36.773438 C 57.179688 38.453125 55.171875 40.183594 53.207031 41.964844 C 51.242188 43.746094 49.324219 45.574219 47.449219 47.449219 C 45.574219 49.324219 43.746094 51.242188 41.964844 53.207031 C 40.183594 55.171875 38.453125 57.179688 36.773438 59.226562 C 35.089844 61.277344 33.460938 63.367188 31.878906 65.496094 C 30.300781 67.625 28.773438 69.792969 27.300781 71.996094 C 25.828125 74.203125 24.410156 76.441406 23.046875 78.714844 C 21.683594 80.988281 20.378906 83.296875 19.128906 85.632812 C 17.878906 87.972656 16.6875 90.339844 15.554688 92.734375 C 14.421875 95.132812 13.347656 97.554688 12.332031 100.003906 C 11.316406 102.453125 10.363281 104.925781 9.46875 107.425781 C 8.578125 109.921875 7.746094 112.4375 6.976562 114.972656 C 6.207031 117.511719 5.5 120.066406 4.855469 122.636719 C 4.210938 125.210938 3.628906 127.796875 3.113281 130.394531 C 2.59375 132.996094 2.140625 135.605469 1.753906 138.230469 C 1.363281 140.851562 1.039062 143.484375 0.78125 146.121094 C 0.519531 148.757812 0.324219 151.402344 0.195312 154.050781 C 0.0664062 156.699219 0 159.347656 0 162 C 0 164.652344 0.0664062 167.300781 0.195312 169.949219 C 0.324219 172.597656 0.519531 175.242188 0.78125 177.878906 C 1.039062 180.515625 1.363281 183.148438 1.753906 185.769531 C 2.140625 188.394531 2.59375 191.003906 3.113281 193.605469 C 3.628906 196.203125 4.210938 198.789062 4.855469 201.363281 C 5.5 203.933594 6.207031 206.488281 6.976562 209.027344 C 7.746094 211.5625 8.578125 214.078125 9.46875 216.574219 C 10.363281 219.074219 11.316406 221.546875 12.332031 223.996094 C 13.347656 226.445312 14.421875 228.867188 15.554688 231.265625 C 16.6875 233.660156 17.878906 236.027344 19.128906 238.367188 C 20.378906 240.703125 21.683594 243.011719 23.046875 245.285156 C 24.410156 247.558594 25.828125 249.796875 27.300781 252.003906 C 28.773438 254.207031 30.300781 256.375 31.878906 258.503906 C 33.460938 260.632812 35.089844 262.722656 36.773438 264.773438 C 38.453125 266.820312 40.183594 268.828125 41.964844 270.792969 C 43.746094 272.757812 45.574219 274.675781 47.449219 276.550781 C 49.324219 278.425781 51.242188 280.253906 53.207031 282.035156 C 55.171875 283.816406 57.179688 285.546875 59.226562 287.226562 C 61.277344 288.910156 63.367188 290.539062 65.496094 292.121094 C 67.625 293.699219 69.792969 295.226562 71.996094 296.699219 C 74.203125 298.171875 76.441406 299.589844 78.714844 300.953125 C 80.988281 302.316406 83.296875 303.621094 85.632812 304.871094 C 87.972656 306.121094 90.339844 307.3125 92.734375 308.445312 C 95.132812 309.578125 97.554688 310.652344 100.003906 311.667969 C 102.453125 312.683594 104.925781 313.636719 107.425781 314.53125 C 109.921875 315.421875 112.4375 316.253906 114.972656 317.023438 C 117.511719 317.792969 120.066406 318.5 122.636719 319.144531 C 125.210938 319.789062 127.796875 320.371094 130.394531 320.886719 C 132.996094 321.40625 135.605469 321.859375 138.230469 322.246094 C 140.851562 322.636719 143.484375 322.960938 146.121094 323.21875 C 148.757812 323.480469 151.402344 323.675781 154.050781 323.804688 C 156.699219 323.933594 159.347656 324 162 324 C 164.652344 324 167.300781 323.933594 169.949219 323.804688 C 172.597656 323.675781 175.242188 323.480469 177.878906 323.21875 C 180.515625 322.960938 183.148438 322.636719 185.769531 322.246094 C 188.394531 321.859375 191.003906 321.40625 193.605469 320.886719 C 196.203125 320.371094 198.789062 319.789062 201.363281 319.144531 C 203.933594 318.5 206.488281 317.792969 209.027344 317.023438 C 211.5625 316.253906 214.078125 315.421875 216.574219 314.53125 C 219.074219 313.636719 221.546875 312.683594 223.996094 311.667969 C 226.445312 310.652344 228.867188 309.578125 231.265625 308.445312 C 233.660156 307.3125 236.027344 306.121094 238.367188 304.871094 C 240.703125 303.621094 243.011719 302.316406 245.285156 300.953125 C 247.558594 299.589844 249.796875 298.171875 252.003906 296.699219 C 254.207031 295.226562 256.375 293.699219 258.503906 292.121094 C 260.632812 290.539062 262.722656 288.910156 264.773438 287.226562 C 266.820312 285.546875 268.828125 283.816406 270.792969 282.035156 C 272.757812 280.253906 274.675781 278.425781 276.550781 276.550781 C 278.425781 274.675781 280.253906 272.757812 282.035156 270.792969 C 283.816406 268.828125 285.546875 266.820312 287.226562 264.773438 C 288.910156 262.722656 290.539062 260.632812 292.121094 258.503906 C 293.699219 256.375 295.226562 254.207031 296.699219 252.003906 C 298.171875 249.796875 299.589844 247.558594 300.953125 245.285156 C 302.316406 243.011719 303.621094 240.703125 304.871094 238.367188 C 306.121094 236.027344 307.3125 233.660156 308.445312 231.265625 C 309.578125 228.867188 310.652344 226.445312 311.667969 223.996094 C 312.683594 221.546875 313.636719 219.074219 314.53125 216.574219 C 315.421875 214.078125 316.253906 211.5625 317.023438 209.027344 C 317.792969 206.488281 318.5 203.933594 319.144531 201.363281 C 319.789062 198.789062 320.371094 196.203125 320.886719 193.605469 C 321.40625 191.003906 321.859375 188.394531 322.246094 185.769531 C 322.636719 183.148438 322.960938 180.515625 323.21875 177.878906 C 323.480469 175.242188 323.675781 172.597656 323.804688 169.949219 C 323.933594 167.300781 324 164.652344 324 162 C 324 159.347656 323.933594 156.699219 323.804688 154.050781 C 323.675781 151.402344 323.480469 148.757812 323.222656 146.121094 C 322.960938 143.480469 322.636719 140.851562 322.246094 138.230469 C 321.859375 135.605469 321.40625 132.996094 320.890625 130.394531 C 320.371094 127.792969 319.792969 125.207031 319.148438 122.636719 C 318.503906 120.0625 317.796875 117.511719 317.027344 114.972656 C 316.257812 112.4375 315.425781 109.917969 314.53125 107.421875 C 313.640625 104.925781 312.6875 102.453125 311.671875 100.003906 C 310.65625 97.554688 309.582031 95.132812 308.449219 92.734375 C 307.316406 90.335938 306.125 87.96875 304.875 85.632812 C 303.625 83.292969 302.316406 80.988281 300.957031 78.714844 C 299.59375 76.4375 298.175781 74.199219 296.699219 71.996094 C 295.226562 69.789062 293.703125 67.625 292.121094 65.496094 C 290.542969 63.363281 288.914062 61.273438 287.230469 59.226562 C 285.550781 57.175781 283.816406 55.167969 282.039062 53.203125 C 280.257812 51.238281 278.429688 49.320312 276.554688 47.445312 C 274.679688 45.570312 272.761719 43.742188 270.796875 41.960938 C 268.832031 40.183594 266.824219 38.449219 264.773438 36.769531 C 262.726562 35.085938 260.636719 33.457031 258.503906 31.878906 C 256.375 30.296875 254.210938 28.773438 252.003906 27.296875 C 249.800781 25.824219 247.5625 24.40625 245.285156 23.042969 C 243.011719 21.683594 240.707031 20.375 238.367188 19.125 C 236.03125 17.875 233.664062 16.683594 231.265625 15.550781 C 228.867188 14.417969 226.445312 13.34375 223.996094 12.328125 C 221.546875 11.3125 219.074219 10.359375 216.578125 9.46875 C 214.082031 8.574219 211.5625 7.742188 209.027344 6.972656 C 206.488281 6.203125 203.9375 5.496094 201.363281 4.851562 C 198.792969 4.207031 196.207031 3.628906 193.605469 3.109375 C 191.003906 2.59375 188.394531 2.140625 185.769531 1.753906 C 183.148438 1.363281 180.519531 1.039062 177.878906 0.777344 C 175.242188 0.519531 172.597656 0.324219 169.949219 0.195312 C 167.300781 0.0664062 164.652344 0 162 0 Z M 67.933594 128.304688 L 88.667969 56.753906 C 88.789062 56.355469 88.972656 55.984375 89.210938 55.644531 C 89.453125 55.304688 89.742188 55.007812 90.074219 54.761719 C 90.410156 54.511719 90.777344 54.324219 91.171875 54.195312 C 91.570312 54.0625 91.976562 54 92.394531 54 L 231.605469 54 C 232.023438 54 232.429688 54.0625 232.828125 54.195312 C 233.222656 54.324219 233.589844 54.511719 233.925781 54.761719 C 234.257812 55.007812 234.546875 55.304688 234.789062 55.644531 C 235.027344 55.984375 235.210938 56.355469 235.332031 56.753906 L 256.066406 128.304688 L 257.742188 133.972656 L 249.695312 133.972656 C 193.644531 133.972656 68.957031 134.027344 66.257812 133.972656 Z M 181.386719 270 L 90.019531 270 C 89.480469 270 88.949219 269.972656 88.414062 269.917969 C 87.882812 269.867188 87.351562 269.785156 86.828125 269.683594 C 86.300781 269.578125 85.785156 269.445312 85.269531 269.289062 C 84.757812 269.132812 84.253906 268.953125 83.761719 268.75 C 83.265625 268.542969 82.78125 268.3125 82.308594 268.0625 C 81.835938 267.808594 81.378906 267.53125 80.933594 267.234375 C 80.488281 266.9375 80.058594 266.617188 79.644531 266.277344 C 79.230469 265.9375 78.835938 265.578125 78.457031 265.199219 C 78.078125 264.820312 77.71875 264.425781 77.378906 264.011719 C 77.039062 263.597656 76.71875 263.167969 76.421875 262.722656 C 76.121094 262.277344 75.847656 261.820312 75.59375 261.347656 C 75.34375 260.875 75.113281 260.390625 74.90625 259.894531 C 74.703125 259.402344 74.523438 258.898438 74.367188 258.386719 C 74.210938 257.871094 74.078125 257.355469 73.972656 256.828125 C 73.871094 256.304688 73.789062 255.773438 73.738281 255.242188 C 73.683594 254.707031 73.65625 254.171875 73.65625 253.636719 L 73.65625 164.808594 C 76.03125 166.484375 78.589844 167.816406 81.324219 168.804688 C 82.78125 169.320312 84.265625 169.730469 85.78125 170.035156 C 87.292969 170.339844 88.820312 170.539062 90.363281 170.628906 C 91.90625 170.722656 93.445312 170.703125 94.984375 170.578125 C 96.527344 170.453125 98.050781 170.21875 99.554688 169.878906 C 101.0625 169.539062 102.539062 169.097656 103.984375 168.550781 C 105.425781 168.003906 106.824219 167.355469 108.179688 166.613281 C 109.535156 165.867188 110.828125 165.03125 112.0625 164.105469 C 113.300781 163.179688 114.464844 162.171875 115.558594 161.082031 C 116.320312 161.84375 117.117188 162.5625 117.949219 163.246094 C 118.78125 163.925781 119.644531 164.566406 120.539062 165.164062 C 121.429688 165.761719 122.351562 166.3125 123.300781 166.820312 C 124.25 167.324219 125.222656 167.785156 126.214844 168.195312 C 127.207031 168.609375 128.21875 168.96875 129.25 169.28125 C 130.277344 169.59375 131.320312 169.855469 132.375 170.0625 C 133.429688 170.273438 134.492188 170.429688 135.5625 170.535156 C 136.632812 170.640625 137.703125 170.695312 138.78125 170.695312 C 139.855469 170.695312 140.929688 170.640625 142 170.535156 C 143.070312 170.429688 144.132812 170.273438 145.1875 170.0625 C 146.242188 169.855469 147.28125 169.59375 148.3125 169.28125 C 149.339844 168.96875 150.351562 168.609375 151.34375 168.195312 C 152.339844 167.785156 153.308594 167.324219 154.257812 166.820312 C 155.207031 166.3125 156.128906 165.761719 157.023438 165.164062 C 157.917969 164.566406 158.78125 163.925781 159.613281 163.246094 C 160.441406 162.5625 161.238281 161.84375 162 161.082031 C 164.605469 163.699219 167.570312 165.8125 170.894531 167.425781 C 174.21875 169.035156 177.714844 170.054688 181.386719 170.476562 Z M 250.34375 253.636719 C 250.34375 254.171875 250.316406 254.707031 250.261719 255.242188 C 250.210938 255.773438 250.128906 256.304688 250.027344 256.828125 C 249.921875 257.355469 249.789062 257.871094 249.632812 258.386719 C 249.476562 258.898438 249.296875 259.402344 249.09375 259.894531 C 248.886719 260.390625 248.65625 260.875 248.40625 261.347656 C 248.152344 261.820312 247.878906 262.277344 247.578125 262.722656 C 247.28125 263.167969 246.960938 263.597656 246.621094 264.011719 C 246.28125 264.425781 245.921875 264.820312 245.542969 265.199219 C 245.164062 265.578125 244.769531 265.9375 244.355469 266.277344 C 243.941406 266.617188 243.511719 266.9375 243.066406 267.234375 C 242.621094 267.53125 242.164062 267.808594 241.691406 268.0625 C 241.21875 268.3125 240.734375 268.542969 240.238281 268.75 C 239.746094 268.953125 239.242188 269.132812 238.730469 269.289062 C 238.214844 269.445312 237.699219 269.578125 237.171875 269.683594 C 236.648438 269.785156 236.117188 269.867188 235.585938 269.917969 C 235.050781 269.972656 234.519531 270 233.980469 270 L 189.054688 270 L 189.054688 170.476562 C 192.722656 170.054688 196.21875 169.035156 199.542969 167.425781 C 202.867188 165.8125 205.832031 163.699219 208.441406 161.082031 C 209.957031 162.609375 211.609375 163.96875 213.398438 165.167969 C 215.1875 166.367188 217.074219 167.378906 219.0625 168.203125 C 221.050781 169.03125 223.097656 169.652344 225.210938 170.070312 C 227.320312 170.488281 229.453125 170.695312 231.605469 170.695312 C 234.960938 170.714844 238.234375 170.222656 241.433594 169.21875 C 244.636719 168.210938 247.605469 166.742188 250.34375 164.808594 Z M 208.441406 151.738281 C 207.902344 152.621094 207.3125 153.46875 206.679688 154.285156 C 206.042969 155.097656 205.363281 155.875 204.640625 156.609375 C 203.917969 157.347656 203.152344 158.042969 202.351562 158.691406 C 201.546875 159.34375 200.710938 159.945312 199.839844 160.5 C 198.96875 161.054688 198.070312 161.558594 197.140625 162.011719 C 196.214844 162.464844 195.261719 162.867188 194.289062 163.210938 C 193.316406 163.554688 192.324219 163.84375 191.320312 164.074219 C 190.3125 164.308594 189.296875 164.484375 188.269531 164.601562 C 187.242188 164.714844 186.214844 164.773438 185.179688 164.773438 C 184.148438 164.773438 183.117188 164.714844 182.09375 164.597656 C 181.066406 164.480469 180.050781 164.304688 179.042969 164.074219 C 178.035156 163.839844 177.046875 163.550781 176.074219 163.207031 C 175.101562 162.859375 174.148438 162.460938 173.222656 162.007812 C 172.292969 161.554688 171.394531 161.046875 170.523438 160.492188 C 169.652344 159.9375 168.816406 159.332031 168.015625 158.683594 C 167.210938 158.03125 166.449219 157.335938 165.726562 156.601562 C 160.542969 150.875 163.457031 150.820312 158.273438 156.601562 C 157.640625 157.25 156.976562 157.863281 156.285156 158.449219 C 155.589844 159.03125 154.871094 159.578125 154.121094 160.085938 C 153.371094 160.597656 152.601562 161.070312 151.804688 161.503906 C 151.007812 161.9375 150.191406 162.328125 149.359375 162.683594 C 148.523438 163.035156 147.671875 163.34375 146.808594 163.609375 C 145.941406 163.878906 145.0625 164.101562 144.175781 164.28125 C 143.289062 164.460938 142.394531 164.597656 141.492188 164.6875 C 140.589844 164.777344 139.6875 164.820312 138.78125 164.820312 C 137.875 164.820312 136.96875 164.777344 136.066406 164.6875 C 135.167969 164.597656 134.273438 164.460938 133.382812 164.28125 C 132.496094 164.101562 131.617188 163.878906 130.753906 163.609375 C 129.886719 163.34375 129.035156 163.035156 128.203125 162.683594 C 127.367188 162.328125 126.550781 161.9375 125.753906 161.503906 C 124.960938 161.070312 124.1875 160.597656 123.4375 160.085938 C 122.691406 159.578125 121.96875 159.03125 121.277344 158.449219 C 120.582031 157.863281 119.917969 157.25 119.285156 156.601562 C 114.316406 150.984375 116.910156 150.929688 111.835938 156.601562 C 110.582031 157.917969 109.207031 159.09375 107.714844 160.128906 C 106.222656 161.167969 104.640625 162.042969 102.96875 162.757812 C 101.296875 163.472656 99.574219 164.011719 97.792969 164.375 C 96.011719 164.738281 94.210938 164.917969 92.394531 164.914062 C 91.589844 164.910156 90.785156 164.871094 89.984375 164.796875 C 89.179688 164.722656 88.382812 164.613281 87.589844 164.464844 C 86.800781 164.320312 86.015625 164.140625 85.238281 163.925781 C 84.460938 163.707031 83.699219 163.460938 82.941406 163.175781 C 82.1875 162.894531 81.449219 162.578125 80.722656 162.230469 C 79.996094 161.878906 79.289062 161.5 78.59375 161.089844 C 77.902344 160.675781 77.230469 160.234375 76.574219 159.765625 C 75.921875 159.292969 75.292969 158.792969 74.683594 158.265625 C 74.074219 157.742188 73.488281 157.1875 72.929688 156.609375 C 72.367188 156.03125 71.835938 155.425781 71.328125 154.800781 C 70.820312 154.175781 70.34375 153.527344 69.894531 152.859375 C 69.445312 152.191406 69.023438 151.503906 68.636719 150.796875 C 68.246094 150.09375 67.890625 149.371094 67.566406 148.632812 C 67.242188 147.898438 66.949219 147.148438 66.691406 146.382812 C 66.433594 145.621094 66.210938 144.847656 66.019531 144.066406 C 65.832031 143.28125 65.675781 142.492188 65.554688 141.695312 L 258.445312 141.695312 C 258.234375 143.0625 257.925781 144.410156 257.511719 145.730469 C 257.097656 147.050781 256.585938 148.332031 255.972656 149.574219 C 255.363281 150.816406 254.664062 152.003906 253.871094 153.140625 C 253.078125 154.273438 252.207031 155.34375 251.25 156.34375 C 250.296875 157.347656 249.269531 158.269531 248.171875 159.113281 C 247.078125 159.957031 245.921875 160.714844 244.710938 161.382812 C 243.496094 162.050781 242.242188 162.621094 240.941406 163.097656 C 239.644531 163.574219 238.3125 163.949219 236.957031 164.21875 C 235.601562 164.492188 234.230469 164.660156 232.847656 164.722656 C 231.464844 164.785156 230.085938 164.742188 228.710938 164.597656 C 227.335938 164.449219 225.976562 164.195312 224.640625 163.839844 C 223.300781 163.484375 222 163.03125 220.730469 162.476562 C 219.464844 161.921875 218.246094 161.273438 217.078125 160.53125 C 215.90625 159.789062 214.800781 158.964844 213.761719 158.054688 C 212.71875 157.144531 211.75 156.160156 210.859375 155.101562 C 209.964844 154.042969 209.160156 152.921875 208.441406 151.738281 Z M 208.441406 151.738281 " fill-opacity="1" fill-rule="nonzero"/></svg>