<svg xmlns="http://www.w3.org/2000/svg" xmlns:xlink="http://www.w3.org/1999/xlink" width="432" zoomAndPan="magnify" viewBox="0 0 324 323.999988" height="432" preserveAspectRatio="xMidYMid meet" version="1.0"><defs><clipPath id="d5f0f2b2b4"><path d="M 24 6.277344 L 299 6.277344 L 299 44 L 24 44 Z M 24 6.277344 " clip-rule="nonzero"/></clipPath><clipPath id="8ed22c528c"><path d="M 24 143 L 299 143 L 299 317.527344 L 24 317.527344 Z M 24 143 " clip-rule="nonzero"/></clipPath></defs><g clip-path="url(#d5f0f2b2b4)"><path fill="#000000" d="M 36.800781 43.628906 C 29.9375 43.628906 24.34375 38.039062 24.34375 31.175781 L 24.34375 18.726562 C 24.34375 11.867188 29.9375 6.277344 36.800781 6.277344 L 285.953125 6.277344 C 292.816406 6.277344 298.410156 11.867188 298.410156 18.726562 L 298.410156 31.175781 C 298.410156 38.039062 292.816406 43.628906 285.953125 43.628906 Z M 36.800781 43.628906 " fill-opacity="1" fill-rule="nonzero"/></g><path fill="#000000" d="M 24.730469 80.976562 L 3.140625 142.855469 C 3.140625 142.855469 2.929688 155.601562 15.785156 155.601562 C 26.5625 155.601562 26.585938 142.855469 26.585938 142.855469 L 44.972656 80.976562 Z M 24.730469 80.976562 " fill-opacity="1" fill-rule="nonzero"/><path fill="#000000" d="M 75.34375 80.976562 L 61.742188 142.855469 C 61.742188 142.855469 61.867188 155.601562 74.175781 155.601562 C 86.484375 155.601562 85.1875 142.855469 85.1875 142.855469 L 95.589844 80.976562 Z M 75.34375 80.976562 " fill-opacity="1" fill-rule="nonzero"/><path fill="#000000" d="M 125.949219 80.976562 L 120.355469 142.855469 C 120.355469 142.855469 120.503906 155.601562 132.375 155.601562 C 144.25 155.601562 143.800781 142.855469 143.800781 142.855469 L 146.191406 80.976562 Z M 125.949219 80.976562 " fill-opacity="1" fill-rule="nonzero"/><path fill="#000000" d="M 176.5625 80.976562 L 178.953125 142.855469 C 178.953125 142.855469 178.519531 155.601562 190.765625 155.601562 C 203.011719 155.601562 202.398438 142.855469 202.398438 142.855469 L 196.804688 80.976562 Z M 176.5625 80.976562 " fill-opacity="1" fill-rule="nonzero"/><path fill="#000000" d="M 227.175781 80.976562 L 237.578125 142.855469 C 237.578125 142.855469 238.453125 155.601562 249.9375 155.601562 C 260.636719 155.601562 261.011719 142.855469 261.011719 142.855469 L 247.410156 80.976562 Z M 227.175781 80.976562 " fill-opacity="1" fill-rule="nonzero"/><path fill="#000000" d="M 277.78125 80.976562 L 296.191406 142.855469 C 296.191406 142.855469 295.496094 155.601562 308.351562 155.601562 C 321.207031 155.601562 319.636719 142.855469 319.636719 142.855469 L 298.023438 80.976562 Z M 277.78125 80.976562 " fill-opacity="1" fill-rule="nonzero"/><path fill="#000000" d="M 24.34375 93.425781 L 24.34375 68.527344 C 24.34375 61.667969 29.9375 56.078125 36.800781 56.078125 L 285.953125 56.078125 C 292.816406 56.078125 298.410156 61.667969 298.410156 68.527344 L 298.410156 93.425781 Z M 24.34375 93.425781 " fill-opacity="1" fill-rule="nonzero"/><g clip-path="url(#8ed22c528c)"><path fill="#000000" d="M 295.917969 143.226562 C 295.929688 143.488281 296.003906 143.75 296.003906 144.023438 C 296.003906 153.746094 288.105469 161.652344 278.367188 161.652344 C 268.625 161.652344 260.726562 153.746094 260.726562 144.023438 C 260.726562 143.75 260.800781 143.488281 260.8125 143.226562 L 237.53125 143.226562 C 237.542969 143.488281 237.617188 143.75 237.617188 144.023438 C 237.617188 153.746094 229.71875 161.652344 219.976562 161.652344 C 210.234375 161.652344 202.335938 153.746094 202.335938 144.023438 C 202.335938 143.75 202.410156 143.488281 202.425781 143.226562 L 178.941406 143.226562 C 178.953125 143.488281 179.03125 143.75 179.03125 144.023438 C 179.03125 153.746094 171.132812 161.652344 161.390625 161.652344 C 151.648438 161.652344 143.75 153.746094 143.75 144.023438 C 143.75 143.75 143.824219 143.488281 143.835938 143.226562 L 120.34375 143.226562 C 120.355469 143.488281 120.429688 143.75 120.429688 144.023438 C 120.429688 153.746094 112.53125 161.652344 102.789062 161.652344 C 93.046875 161.652344 85.148438 153.746094 85.148438 144.023438 C 85.148438 143.75 85.222656 143.488281 85.238281 143.226562 L 61.742188 143.226562 C 61.753906 143.488281 61.828125 143.75 61.828125 144.023438 C 61.828125 153.746094 53.929688 161.652344 44.1875 161.652344 C 34.449219 161.652344 26.550781 153.746094 26.550781 144.023438 C 26.550781 143.75 26.625 143.488281 26.636719 143.226562 L 24.34375 143.226562 L 24.34375 305.078125 C 24.34375 311.9375 29.9375 317.527344 36.800781 317.527344 L 198.75 317.527344 L 198.75 193.027344 L 261.039062 193.027344 L 261.039062 317.527344 L 285.953125 317.527344 C 292.816406 317.527344 298.410156 311.9375 298.410156 305.078125 L 298.410156 143.226562 Z M 161.378906 280.175781 L 61.71875 280.175781 L 61.71875 193.027344 L 161.378906 193.027344 Z M 161.378906 280.175781 " fill-opacity="1" fill-rule="nonzero"/></g></svg>