<svg xmlns="http://www.w3.org/2000/svg" xmlns:xlink="http://www.w3.org/1999/xlink" width="151" zoomAndPan="magnify" viewBox="0 0 113.25 129.749996" height="173" preserveAspectRatio="xMidYMid meet" version="1.0"><defs><clipPath id="9b58a008a0"><path d="M 0 0.300781 L 112.367188 0.300781 L 112.367188 33 L 0 33 Z M 0 0.300781 " clip-rule="nonzero"/></clipPath><clipPath id="71799019e2"><path d="M 7 40 L 105 40 L 105 129.199219 L 7 129.199219 Z M 7 40 " clip-rule="nonzero"/></clipPath></defs><g clip-path="url(#9b58a008a0)"><path fill="#000000" d="M 108.347656 16.113281 L 80.222656 16.113281 L 80.222656 4.332031 C 80.222656 2.117188 78.414062 0.300781 76.203125 0.300781 L 36.023438 0.300781 C 33.8125 0.300781 32.003906 2.117188 32.003906 4.332031 L 32.003906 16.113281 L 3.878906 16.113281 C 1.667969 16.113281 -0.140625 17.925781 -0.140625 20.140625 L -0.140625 28.195312 C -0.140625 30.410156 1.667969 32.226562 3.878906 32.226562 L 108.347656 32.226562 C 110.558594 32.226562 112.367188 30.410156 112.367188 28.195312 L 112.367188 20.140625 C 112.367188 17.925781 110.558594 16.113281 108.347656 16.113281 Z M 108.347656 16.113281 " fill-opacity="1" fill-rule="nonzero"/></g><g clip-path="url(#71799019e2)"><path fill="#000000" d="M 17.539062 125.675781 C 17.742188 127.6875 19.449219 129.199219 21.558594 129.199219 L 90.769531 129.199219 C 92.777344 129.199219 94.484375 127.6875 94.785156 125.675781 L 104.429688 40.683594 L 7.894531 40.683594 Z M 72.183594 112.582031 L 79.214844 56.292969 C 79.519531 54.078125 81.527344 52.566406 83.738281 52.765625 C 85.945312 53.070312 87.453125 55.082031 87.253906 57.300781 L 80.222656 113.589844 C 79.917969 115.605469 78.210938 117.113281 76.203125 117.113281 C 76.003906 117.113281 75.902344 117.113281 75.699219 117.113281 C 73.492188 116.8125 71.984375 114.800781 72.183594 112.582031 Z M 52.09375 56.796875 C 52.09375 54.582031 53.902344 52.765625 56.113281 52.765625 C 58.324219 52.765625 60.128906 54.582031 60.128906 56.796875 L 60.128906 113.085938 C 60.128906 115.300781 58.324219 117.113281 56.113281 117.113281 C 53.902344 117.113281 52.09375 115.300781 52.09375 113.085938 Z M 28.488281 52.765625 C 30.699219 52.464844 32.707031 54.078125 33.007812 56.292969 L 40.039062 112.582031 C 40.34375 114.800781 38.734375 116.8125 36.523438 117.113281 C 36.324219 117.113281 36.222656 117.113281 36.023438 117.113281 C 34.011719 117.113281 32.304688 115.605469 32.003906 113.589844 L 24.972656 57.300781 C 24.773438 55.082031 26.277344 53.070312 28.488281 52.765625 Z M 28.488281 52.765625 " fill-opacity="1" fill-rule="nonzero"/></g></svg>