<svg xmlns="http://www.w3.org/2000/svg" xmlns:xlink="http://www.w3.org/1999/xlink" width="172" zoomAndPan="magnify" viewBox="0 0 129 119.999999" height="160" preserveAspectRatio="xMidYMid meet" version="1.0"><path fill="#000000" d="M 126.476562 29.695312 C 124.273438 26.476562 120.644531 24.546875 116.742188 24.546875 L 27.453125 24.546875 L 22.863281 3.808594 C 22.355469 1.738281 20.519531 0.222656 18.363281 0.222656 L 4.589844 0.222656 C 2.066406 0.222656 0 2.289062 0 4.820312 C 0 7.347656 2.066406 9.417969 4.589844 9.417969 L 14.691406 9.417969 L 19.28125 30.15625 C 19.28125 30.15625 19.28125 30.203125 19.28125 30.203125 C 19.28125 30.203125 19.28125 30.203125 19.28125 30.25 L 32.226562 84.234375 C 32.273438 84.417969 32.320312 84.648438 32.410156 84.832031 C 34.15625 89.335938 38.5625 92.371094 43.382812 92.371094 L 98.839844 92.371094 C 103.660156 92.371094 108.066406 89.335938 109.8125 84.921875 L 127.714844 40.6875 C 129.136719 36.960938 128.679688 32.871094 126.476562 29.695312 Z M 119.222656 37.191406 L 101.316406 81.429688 C 100.949219 82.441406 99.941406 83.082031 98.882812 83.082031 L 43.429688 83.082031 C 42.464844 83.082031 41.546875 82.484375 41.085938 81.613281 L 29.609375 33.695312 L 116.742188 33.695312 C 117.980469 33.695312 118.671875 34.480469 118.898438 34.847656 C 119.128906 35.214844 119.636719 36.132812 119.222656 37.191406 Z M 55.089844 110.535156 C 55.089844 115.59375 51.003906 119.6875 45.953125 119.6875 C 40.902344 119.6875 36.816406 115.59375 36.816406 110.535156 C 36.816406 105.476562 40.902344 101.386719 45.953125 101.386719 C 51.003906 101.386719 55.089844 105.476562 55.089844 110.535156 Z M 105.585938 110.535156 C 105.585938 115.59375 101.5 119.6875 96.453125 119.6875 C 91.402344 119.6875 87.316406 115.59375 87.316406 110.535156 C 87.316406 105.476562 91.402344 101.386719 96.453125 101.386719 C 101.5 101.386719 105.585938 105.476562 105.585938 110.535156 Z M 105.585938 110.535156 " fill-opacity="1" fill-rule="nonzero"/></svg>