<svg xmlns="http://www.w3.org/2000/svg" xmlns:xlink="http://www.w3.org/1999/xlink" width="432" zoomAndPan="magnify" viewBox="0 0 324 323.999988" height="432" preserveAspectRatio="xMidYMid meet" version="1.0"><defs><clipPath id="089cbbee24"><path d="M 0 20.25 L 324 20.25 L 324 303.75 L 0 303.75 Z M 0 20.25 " clip-rule="nonzero"/></clipPath></defs><g clip-path="url(#089cbbee24)"><path fill="#868686" d="M 283.566406 120.140625 C 279.160156 92.597656 265.226562 67.457031 244.101562 49.246094 C 222.589844 30.585938 194.984375 20.347656 166.40625 20.347656 L 157.59375 20.347656 C 128.042969 20.347656 99.664062 31.296875 77.824219 51.191406 C 57.929688 69.269531 44.648438 93.765625 40.433594 120.203125 C 18.015625 120.980469 0 139.515625 0 162.195312 L 0 179.496094 C 0 202.757812 18.855469 221.617188 42.054688 221.617188 L 46.074219 221.617188 C 57.671875 221.617188 67.066406 212.21875 67.066406 200.621094 L 67.066406 141.132812 C 67.066406 131.933594 61.171875 123.898438 52.488281 121.175781 C 56.441406 97.78125 68.234375 76.203125 85.925781 60.132812 C 105.625 42.25 131.027344 32.398438 157.59375 32.398438 L 166.40625 32.398438 C 191.9375 32.398438 216.625 41.535156 235.9375 58.125 C 254.792969 74.324219 267.363281 96.617188 271.445312 121.109375 C 262.765625 123.898438 256.867188 131.867188 256.867188 141.070312 L 256.867188 200.554688 C 256.867188 210.277344 263.734375 218.828125 273.132812 221.03125 L 273.261719 228.355469 C 273.261719 255.636719 251.101562 277.796875 223.820312 277.796875 L 207.683594 277.796875 C 206.128906 269.828125 199.195312 263.996094 190.964844 263.996094 L 163.425781 263.996094 C 154.03125 263.996094 146.382812 271.640625 146.382812 281.039062 L 146.382812 286.609375 C 146.382812 296.007812 154.03125 303.652344 163.425781 303.652344 L 190.964844 303.652344 C 199.261719 303.652344 206.195312 297.820312 207.683594 289.851562 L 223.820312 289.851562 C 240.277344 289.851562 255.699219 283.433594 267.363281 271.769531 C 279.027344 260.105469 285.445312 244.621094 285.445312 228.160156 L 285.3125 221.421875 C 307.152344 219.738281 324 201.65625 324 179.496094 L 324 162.128906 C 324 139.515625 305.984375 120.980469 283.566406 120.140625 Z M 55.015625 141.132812 L 55.015625 200.621094 C 55.015625 205.546875 51.0625 209.5 46.136719 209.5 L 42.121094 209.5 C 25.597656 209.5 12.183594 196.085938 12.183594 179.5625 L 12.183594 162.195312 C 12.183594 145.863281 25.273438 132.582031 41.535156 132.257812 C 41.796875 132.257812 42.054688 132.257812 42.378906 132.257812 L 46.65625 132.515625 C 50.21875 132.710938 53.460938 134.976562 54.5625 138.347656 C 54.820312 139.191406 55.015625 140.164062 55.015625 141.132812 Z M 195.890625 286.609375 C 195.890625 289.332031 193.6875 291.535156 190.964844 291.535156 L 163.425781 291.535156 C 160.703125 291.535156 158.5 289.332031 158.5 286.609375 L 158.5 281.039062 C 158.5 278.316406 160.703125 276.113281 163.425781 276.113281 L 190.964844 276.113281 C 193.6875 276.113281 195.890625 278.316406 195.890625 281.039062 Z M 311.882812 179.496094 C 311.882812 196.019531 298.46875 209.433594 281.945312 209.433594 L 277.925781 209.433594 C 273.003906 209.433594 269.050781 205.480469 269.050781 200.554688 L 269.050781 141.070312 C 269.050781 136.339844 272.871094 132.386719 277.539062 132.191406 C 278.058594 132.257812 278.574219 132.257812 279.027344 132.191406 C 279.160156 132.191406 279.222656 132.191406 279.351562 132.128906 L 282.007812 132.128906 C 298.535156 132.128906 311.945312 145.539062 311.945312 162.066406 L 311.945312 179.496094 Z M 311.882812 179.496094 " fill-opacity="1" fill-rule="nonzero"/></g><path fill="#868686" d="M 156.296875 249.933594 C 157.140625 252.394531 159.472656 254.015625 162 254.015625 C 164.59375 254.015625 166.859375 252.394531 167.703125 249.933594 L 179.429688 216.171875 C 211.894531 214.941406 238.140625 187.855469 238.140625 155.195312 L 238.140625 125 C 238.140625 91.367188 210.730469 63.957031 177.097656 63.957031 L 146.902344 63.957031 C 113.269531 63.957031 85.859375 91.367188 85.859375 125 L 85.859375 155.195312 C 85.859375 187.855469 112.105469 214.941406 144.570312 216.171875 Z M 97.976562 155.132812 L 97.976562 124.933594 C 97.976562 97.976562 119.945312 76.011719 146.902344 76.011719 L 177.097656 76.011719 C 204.054688 76.011719 226.023438 97.976562 226.023438 124.933594 L 226.023438 155.132812 C 226.023438 182.089844 204.054688 204.054688 177.097656 204.054688 L 175.089844 204.054688 C 172.496094 204.054688 170.230469 205.675781 169.386719 208.136719 L 162 229.390625 L 154.613281 208.074219 C 153.769531 205.609375 151.4375 203.992188 148.910156 203.992188 L 146.902344 203.992188 C 119.945312 204.054688 97.976562 182.089844 97.976562 155.132812 Z M 97.976562 155.132812 " fill-opacity="1" fill-rule="nonzero"/><path fill="#868686" d="M 117.480469 148.714844 L 113.722656 152.34375 L 113.722656 156.945312 L 136.597656 156.945312 L 136.597656 150.59375 L 124.546875 150.59375 C 131.15625 144.246094 135.820312 139.253906 135.820312 132.710938 C 135.820312 127.460938 132.386719 122.148438 124.804688 122.148438 C 121.175781 122.148438 117.675781 123.378906 115.019531 125.648438 L 114.242188 126.359375 L 116.769531 131.996094 L 118.195312 130.832031 C 119.230469 129.988281 121.371094 128.5 123.960938 128.5 C 127.136719 128.5 128.824219 130.117188 128.824219 133.230469 C 128.691406 137.375 125.386719 141.199219 117.480469 148.714844 Z M 117.480469 148.714844 " fill-opacity="1" fill-rule="nonzero"/><path fill="#868686" d="M 160.898438 157.011719 L 160.898438 148.457031 L 165.304688 148.457031 L 165.304688 142.300781 L 160.898438 142.300781 L 160.898438 122.796875 L 154.160156 122.796875 L 139.449219 143.792969 L 139.449219 148.457031 L 154.03125 148.457031 L 154.03125 157.011719 Z M 147.808594 142.300781 L 153.964844 133.746094 L 154.03125 133.683594 L 154.03125 142.367188 L 147.808594 142.367188 Z M 147.808594 142.300781 " fill-opacity="1" fill-rule="nonzero"/><path fill="#868686" d="M 186.105469 121.109375 L 179.820312 121.109375 L 165.238281 158.953125 L 171.460938 158.953125 Z M 186.105469 121.109375 " fill-opacity="1" fill-rule="nonzero"/><path fill="#868686" d="M 210.277344 127.332031 L 210.277344 122.796875 L 187.660156 122.796875 L 187.660156 129.144531 L 202.242188 129.144531 L 188.566406 157.011719 L 196.085938 157.011719 Z M 210.277344 127.332031 " fill-opacity="1" fill-rule="nonzero"/></svg>