<svg xmlns="http://www.w3.org/2000/svg" xmlns:xlink="http://www.w3.org/1999/xlink" width="432" zoomAndPan="magnify" viewBox="0 0 324 323.999988" height="432" preserveAspectRatio="xMidYMid meet" version="1.0"><path fill="#000000" d="M 161.246094 -0.753906 C 71.917969 -0.753906 -0.753906 71.917969 -0.753906 161.246094 C -0.753906 250.574219 71.917969 323.246094 161.246094 323.246094 C 250.574219 323.246094 323.246094 250.574219 323.246094 161.246094 C 323.246094 71.917969 250.574219 -0.753906 161.246094 -0.753906 Z M 161.246094 300.640625 C 84.382812 300.640625 21.851562 238.109375 21.851562 161.246094 C 21.851562 84.382812 84.382812 21.851562 161.246094 21.851562 C 238.109375 21.851562 300.640625 84.382812 300.640625 161.246094 C 300.640625 238.109375 238.109375 300.640625 161.246094 300.640625 Z M 149.945312 176.316406 L 149.945312 85.898438 C 149.945312 79.65625 155.007812 74.59375 161.246094 74.59375 C 167.484375 74.59375 172.550781 79.65625 172.550781 85.898438 L 172.550781 176.316406 C 172.550781 182.554688 167.484375 187.617188 161.246094 187.617188 C 155.007812 187.617188 149.945312 182.554688 149.945312 176.316406 Z M 176.316406 229.058594 C 176.316406 237.382812 169.570312 244.128906 161.246094 244.128906 C 152.921875 244.128906 146.175781 237.382812 146.175781 229.058594 C 146.175781 220.738281 152.921875 213.992188 161.246094 213.992188 C 169.570312 213.992188 176.316406 220.738281 176.316406 229.058594 Z M 176.316406 229.058594 " fill-opacity="1" fill-rule="nonzero"/></svg>