<svg xmlns="http://www.w3.org/2000/svg" xmlns:xlink="http://www.w3.org/1999/xlink" width="173" zoomAndPan="magnify" viewBox="0 0 129.75 123.750003" height="165" preserveAspectRatio="xMidYMid meet" version="1.0"><path fill="#000000" d="M 123.34375 103.0625 L 120.695312 103.0625 C 121.164062 103.636719 121.574219 104.246094 121.925781 104.898438 C 122.277344 105.546875 122.566406 106.222656 122.792969 106.929688 C 123.015625 107.632812 123.171875 108.351562 123.261719 109.085938 C 123.351562 109.820312 123.371094 110.554688 123.320312 111.292969 C 123.269531 112.027344 123.152344 112.753906 122.964844 113.46875 C 122.777344 114.183594 122.527344 114.875 122.207031 115.542969 C 121.890625 116.210938 121.515625 116.84375 121.078125 117.441406 C 120.640625 118.035156 120.152344 118.585938 119.613281 119.089844 C 119.070312 119.597656 118.488281 120.046875 117.863281 120.441406 C 117.238281 120.835938 116.582031 121.167969 115.890625 121.441406 C 115.203125 121.710938 114.496094 121.917969 113.769531 122.054688 C 113.042969 122.191406 112.308594 122.261719 111.570312 122.261719 C 110.828125 122.261719 110.097656 122.191406 109.367188 122.054688 C 108.640625 121.917969 107.933594 121.710938 107.246094 121.441406 C 106.558594 121.167969 105.902344 120.835938 105.273438 120.441406 C 104.648438 120.046875 104.066406 119.597656 103.527344 119.089844 C 102.984375 118.585938 102.496094 118.035156 102.058594 117.441406 C 101.625 116.84375 101.246094 116.210938 100.929688 115.542969 C 100.613281 114.875 100.359375 114.183594 100.171875 113.46875 C 99.984375 112.753906 99.867188 112.027344 99.816406 111.292969 C 99.769531 110.554688 99.789062 109.820312 99.875 109.085938 C 99.964844 108.351562 100.121094 107.632812 100.347656 106.929688 C 100.570312 106.222656 100.859375 105.546875 101.210938 104.898438 C 101.566406 104.246094 101.976562 103.636719 102.441406 103.0625 L 73.582031 103.0625 C 74.066406 103.65625 74.488281 104.292969 74.84375 104.96875 C 75.203125 105.644531 75.492188 106.347656 75.714844 107.078125 C 75.933594 107.8125 76.082031 108.558594 76.15625 109.316406 C 76.234375 110.078125 76.234375 110.839844 76.160156 111.601562 C 76.085938 112.359375 75.941406 113.109375 75.71875 113.839844 C 75.5 114.574219 75.210938 115.277344 74.855469 115.953125 C 74.496094 116.628906 74.078125 117.265625 73.597656 117.859375 C 73.117188 118.453125 72.582031 118.996094 71.996094 119.484375 C 71.40625 119.976562 70.777344 120.40625 70.105469 120.773438 C 69.4375 121.140625 68.734375 121.441406 68.003906 121.671875 C 67.277344 121.902344 66.53125 122.0625 65.769531 122.148438 C 65.007812 122.234375 64.246094 122.246094 63.484375 122.183594 C 62.722656 122.121094 61.972656 121.984375 61.234375 121.773438 C 60.5 121.566406 59.789062 121.289062 59.109375 120.941406 C 58.425781 120.59375 57.785156 120.1875 57.183594 119.714844 C 56.578125 119.242188 56.027344 118.714844 55.53125 118.136719 C 55.03125 117.558594 54.589844 116.933594 54.214844 116.269531 C 53.835938 115.605469 53.527344 114.910156 53.285156 114.1875 C 53.042969 113.460938 52.871094 112.71875 52.773438 111.960938 C 52.679688 111.203125 52.65625 110.441406 52.707031 109.679688 C 52.757812 108.917969 52.882812 108.164062 53.082031 107.425781 C 53.277344 106.6875 53.546875 105.976562 53.882812 105.289062 C 54.222656 104.605469 54.621094 103.957031 55.085938 103.347656 C 55.550781 102.742188 56.066406 102.183594 56.640625 101.675781 C 55.351562 101.121094 54.15625 100.40625 53.054688 99.539062 C 51.949219 98.671875 50.976562 97.679688 50.132812 96.558594 C 49.285156 95.4375 48.601562 94.230469 48.070312 92.929688 C 47.542969 91.632812 47.1875 90.285156 47.007812 88.894531 L 37.804688 15.40625 C 37.75 14.96875 37.65625 14.535156 37.519531 14.113281 C 37.386719 13.6875 37.214844 13.28125 37.007812 12.886719 C 36.800781 12.496094 36.558594 12.125 36.285156 11.777344 C 36.007812 11.425781 35.707031 11.105469 35.371094 10.8125 C 35.039062 10.519531 34.679688 10.257812 34.300781 10.027344 C 33.921875 9.796875 33.523438 9.605469 33.105469 9.445312 C 32.691406 9.289062 32.265625 9.167969 31.828125 9.089844 C 31.390625 9.007812 30.949219 8.96875 30.503906 8.96875 L 17.34375 8.96875 C 17.054688 8.96875 16.765625 8.9375 16.484375 8.882812 C 16.199219 8.824219 15.921875 8.742188 15.652344 8.632812 C 15.386719 8.519531 15.132812 8.386719 14.890625 8.222656 C 14.648438 8.0625 14.425781 7.878906 14.222656 7.675781 C 14.015625 7.46875 13.832031 7.246094 13.671875 7.007812 C 13.511719 6.765625 13.375 6.511719 13.261719 6.246094 C 13.152344 5.976562 13.070312 5.699219 13.011719 5.417969 C 12.957031 5.132812 12.925781 4.847656 12.925781 4.554688 C 12.925781 4.265625 12.957031 3.980469 13.011719 3.695312 C 13.070312 3.410156 13.152344 3.136719 13.261719 2.867188 C 13.375 2.601562 13.511719 2.347656 13.671875 2.105469 C 13.832031 1.867188 14.015625 1.640625 14.222656 1.4375 C 14.425781 1.234375 14.648438 1.050781 14.890625 0.890625 C 15.132812 0.726562 15.386719 0.59375 15.652344 0.480469 C 15.921875 0.371094 16.199219 0.285156 16.484375 0.230469 C 16.765625 0.175781 17.054688 0.144531 17.34375 0.144531 L 30.503906 0.144531 C 31.480469 0.148438 32.449219 0.238281 33.414062 0.414062 C 34.375 0.589844 35.3125 0.851562 36.230469 1.199219 C 37.144531 1.542969 38.019531 1.96875 38.859375 2.476562 C 39.695312 2.980469 40.480469 3.554688 41.214844 4.203125 C 41.949219 4.847656 42.617188 5.554688 43.222656 6.324219 C 43.828125 7.089844 44.359375 7.90625 44.816406 8.769531 C 45.273438 9.632812 45.648438 10.53125 45.945312 11.464844 C 46.238281 12.394531 46.449219 13.347656 46.570312 14.316406 L 48.292969 28.082031 L 111.5625 28.082031 C 112.007812 28.082031 112.453125 28.105469 112.894531 28.15625 C 113.339844 28.207031 113.777344 28.285156 114.210938 28.382812 C 114.644531 28.484375 115.074219 28.609375 115.492188 28.757812 C 115.914062 28.90625 116.324219 29.078125 116.726562 29.273438 C 117.125 29.46875 117.515625 29.6875 117.890625 29.925781 C 118.265625 30.164062 118.628906 30.425781 118.976562 30.707031 C 119.320312 30.984375 119.652344 31.285156 119.964844 31.601562 C 120.277344 31.921875 120.570312 32.253906 120.84375 32.605469 C 121.117188 32.957031 121.371094 33.320312 121.605469 33.703125 C 121.835938 34.082031 122.046875 34.472656 122.234375 34.878906 C 122.425781 35.28125 122.589844 35.695312 122.730469 36.117188 C 122.871094 36.539062 122.988281 36.96875 123.082031 37.402344 C 123.175781 37.839844 123.242188 38.277344 123.285156 38.722656 C 123.328125 39.164062 123.34375 39.609375 123.335938 40.054688 C 123.328125 40.5 123.292969 40.945312 123.234375 41.386719 C 123.175781 41.828125 123.09375 42.265625 122.984375 42.695312 L 117.097656 66.21875 C 116.9375 66.851562 116.730469 67.464844 116.46875 68.0625 C 116.210938 68.660156 115.902344 69.230469 115.546875 69.777344 C 115.191406 70.324219 114.792969 70.835938 114.351562 71.316406 C 113.910156 71.796875 113.433594 72.238281 112.921875 72.636719 C 112.40625 73.039062 111.863281 73.394531 111.289062 73.703125 C 110.714844 74.015625 110.121094 74.277344 109.503906 74.488281 C 108.886719 74.699219 108.257812 74.859375 107.617188 74.96875 C 106.972656 75.074219 106.324219 75.128906 105.671875 75.128906 L 54.183594 75.128906 L 55.773438 87.800781 C 55.828125 88.242188 55.921875 88.675781 56.054688 89.097656 C 56.191406 89.519531 56.359375 89.929688 56.570312 90.320312 C 56.777344 90.714844 57.019531 91.085938 57.292969 91.433594 C 57.570312 91.78125 57.871094 92.105469 58.207031 92.398438 C 58.539062 92.691406 58.894531 92.953125 59.277344 93.183594 C 59.65625 93.414062 60.054688 93.605469 60.472656 93.765625 C 60.886719 93.921875 61.3125 94.039062 61.75 94.121094 C 62.1875 94.203125 62.628906 94.242188 63.074219 94.242188 L 123.34375 94.242188 C 123.636719 94.242188 123.921875 94.269531 124.207031 94.328125 C 124.492188 94.382812 124.769531 94.46875 125.035156 94.578125 C 125.304688 94.6875 125.558594 94.824219 125.800781 94.984375 C 126.039062 95.148438 126.261719 95.328125 126.46875 95.535156 C 126.671875 95.738281 126.855469 95.960938 127.019531 96.203125 C 127.179688 96.445312 127.316406 96.699219 127.425781 96.964844 C 127.535156 97.234375 127.621094 97.507812 127.675781 97.792969 C 127.734375 98.078125 127.761719 98.363281 127.761719 98.652344 C 127.761719 98.941406 127.734375 99.230469 127.675781 99.515625 C 127.621094 99.796875 127.535156 100.074219 127.425781 100.339844 C 127.316406 100.609375 127.179688 100.863281 127.019531 101.105469 C 126.855469 101.34375 126.671875 101.566406 126.46875 101.773438 C 126.261719 101.976562 126.039062 102.160156 125.800781 102.320312 C 125.558594 102.480469 125.304688 102.617188 125.035156 102.726562 C 124.769531 102.839844 124.492188 102.921875 124.207031 102.980469 C 123.921875 103.035156 123.636719 103.0625 123.34375 103.0625 Z M 5.566406 38.375 L 33.261719 38.375 L 32.160156 29.550781 L 5.566406 29.550781 C 5.277344 29.550781 4.988281 29.582031 4.703125 29.636719 C 4.421875 29.691406 4.144531 29.777344 3.875 29.886719 C 3.609375 30 3.355469 30.132812 3.113281 30.296875 C 2.871094 30.457031 2.648438 30.640625 2.441406 30.84375 C 2.238281 31.046875 2.054688 31.269531 1.894531 31.511719 C 1.734375 31.753906 1.597656 32.007812 1.484375 32.273438 C 1.375 32.542969 1.289062 32.816406 1.234375 33.101562 C 1.179688 33.386719 1.148438 33.671875 1.148438 33.960938 C 1.148438 34.253906 1.179688 34.539062 1.234375 34.824219 C 1.289062 35.105469 1.375 35.382812 1.484375 35.652344 C 1.597656 35.917969 1.734375 36.171875 1.894531 36.414062 C 2.054688 36.652344 2.238281 36.875 2.441406 37.082031 C 2.648438 37.285156 2.871094 37.46875 3.113281 37.628906 C 3.355469 37.789062 3.609375 37.925781 3.875 38.039062 C 4.144531 38.148438 4.421875 38.230469 4.703125 38.289062 C 4.988281 38.34375 5.277344 38.375 5.566406 38.375 Z M 11.457031 47.195312 C 11.164062 47.195312 10.878906 47.222656 10.59375 47.28125 C 10.308594 47.335938 10.03125 47.417969 9.765625 47.53125 C 9.496094 47.640625 9.242188 47.777344 9 47.9375 C 8.761719 48.097656 8.539062 48.28125 8.332031 48.488281 C 8.128906 48.691406 7.945312 48.914062 7.78125 49.15625 C 7.621094 49.394531 7.484375 49.648438 7.375 49.917969 C 7.265625 50.183594 7.179688 50.460938 7.125 50.746094 C 7.066406 51.027344 7.039062 51.316406 7.039062 51.605469 C 7.039062 51.894531 7.066406 52.183594 7.125 52.464844 C 7.179688 52.75 7.265625 53.027344 7.375 53.292969 C 7.484375 53.5625 7.621094 53.816406 7.78125 54.054688 C 7.945312 54.296875 8.128906 54.519531 8.332031 54.722656 C 8.539062 54.929688 8.761719 55.113281 9 55.273438 C 9.242188 55.433594 9.496094 55.570312 9.765625 55.679688 C 10.03125 55.792969 10.308594 55.875 10.59375 55.929688 C 10.878906 55.988281 11.164062 56.015625 11.457031 56.015625 L 35.472656 56.015625 L 34.367188 47.195312 Z M 12.925781 69.25 C 12.925781 69.539062 12.957031 69.824219 13.011719 70.109375 C 13.070312 70.394531 13.152344 70.667969 13.261719 70.9375 C 13.375 71.203125 13.511719 71.457031 13.671875 71.699219 C 13.832031 71.941406 14.015625 72.164062 14.222656 72.367188 C 14.425781 72.570312 14.648438 72.753906 14.890625 72.914062 C 15.132812 73.078125 15.386719 73.210938 15.652344 73.324219 C 15.921875 73.433594 16.199219 73.519531 16.484375 73.574219 C 16.765625 73.632812 17.054688 73.660156 17.34375 73.660156 L 37.683594 73.660156 L 36.578125 64.835938 L 17.34375 64.835938 C 17.054688 64.835938 16.765625 64.867188 16.484375 64.921875 C 16.199219 64.980469 15.921875 65.0625 15.652344 65.171875 C 15.386719 65.285156 15.132812 65.421875 14.890625 65.582031 C 14.648438 65.742188 14.425781 65.925781 14.222656 66.128906 C 14.015625 66.335938 13.832031 66.558594 13.671875 66.796875 C 13.511719 67.039062 13.375 67.292969 13.261719 67.5625 C 13.152344 67.828125 13.070312 68.105469 13.011719 68.386719 C 12.957031 68.671875 12.925781 68.957031 12.925781 69.25 Z M 12.925781 69.25 " fill-opacity="1" fill-rule="nonzero"/></svg>