<svg xmlns="http://www.w3.org/2000/svg" xmlns:xlink="http://www.w3.org/1999/xlink" width="173" zoomAndPan="magnify" viewBox="0 0 129.75 112.499997" height="150" preserveAspectRatio="xMidYMid meet" version="1.0"><defs><clipPath id="b898349ce7"><path d="M 0.164062 0 L 129.339844 0 L 129.339844 112.003906 L 0.164062 112.003906 Z M 0.164062 0 " clip-rule="nonzero"/></clipPath><clipPath id="4ce45dbe79"><path d="M 0.164062 38 L 129.339844 38 L 129.339844 112.003906 L 0.164062 112.003906 Z M 0.164062 38 " clip-rule="nonzero"/></clipPath></defs><g clip-path="url(#b898349ce7)"><path fill="#d5eafe" d="M 13.105469 0 L 116.394531 0 C 117.242188 0 118.082031 0.0820312 118.914062 0.25 C 119.746094 0.414062 120.554688 0.660156 121.335938 0.984375 C 122.121094 1.308594 122.863281 1.707031 123.570312 2.179688 C 124.273438 2.648438 124.925781 3.183594 125.523438 3.785156 C 126.125 4.386719 126.660156 5.039062 127.128906 5.742188 C 127.601562 6.449219 128 7.195312 128.324219 7.976562 C 128.648438 8.761719 128.894531 9.570312 129.058594 10.402344 C 129.222656 11.234375 129.304688 12.074219 129.304688 12.921875 L 129.304688 99.078125 C 129.304688 99.925781 129.222656 100.769531 129.058594 101.601562 C 128.894531 102.433594 128.648438 103.242188 128.324219 104.023438 C 128 104.808594 127.601562 105.554688 127.128906 106.257812 C 126.660156 106.964844 126.125 107.617188 125.523438 108.21875 C 124.925781 108.816406 124.273438 109.351562 123.570312 109.824219 C 122.863281 110.296875 122.121094 110.695312 121.335938 111.019531 C 120.554688 111.34375 119.746094 111.589844 118.914062 111.753906 C 118.082031 111.917969 117.242188 112.003906 116.394531 112.003906 L 13.105469 112.003906 C 12.257812 112.003906 11.417969 111.917969 10.585938 111.753906 C 9.753906 111.589844 8.949219 111.34375 8.164062 111.019531 C 7.382812 110.695312 6.636719 110.296875 5.933594 109.824219 C 5.226562 109.351562 4.574219 108.816406 3.976562 108.21875 C 3.375 107.617188 2.839844 106.964844 2.371094 106.257812 C 1.898438 105.554688 1.5 104.808594 1.175781 104.023438 C 0.851562 103.242188 0.609375 102.433594 0.441406 101.601562 C 0.277344 100.769531 0.195312 99.925781 0.195312 99.078125 L 0.195312 12.921875 C 0.195312 12.074219 0.277344 11.234375 0.441406 10.402344 C 0.609375 9.570312 0.851562 8.761719 1.175781 7.976562 C 1.5 7.195312 1.898438 6.449219 2.371094 5.742188 C 2.839844 5.039062 3.375 4.386719 3.976562 3.785156 C 4.574219 3.183594 5.226562 2.648438 5.933594 2.179688 C 6.636719 1.707031 7.382812 1.308594 8.164062 0.984375 C 8.949219 0.660156 9.753906 0.414062 10.585938 0.25 C 11.417969 0.0820312 12.257812 0 13.105469 0 Z M 13.105469 0 " fill-opacity="1" fill-rule="nonzero"/></g><g clip-path="url(#4ce45dbe79)"><path fill="#a0ecbc" d="M 128.046875 70.1875 L 97.917969 40.03125 C 97.71875 39.832031 97.503906 39.652344 97.265625 39.496094 C 97.03125 39.339844 96.785156 39.207031 96.523438 39.097656 C 96.261719 38.992188 95.992188 38.910156 95.714844 38.855469 C 95.4375 38.796875 95.160156 38.769531 94.875 38.769531 C 94.59375 38.769531 94.3125 38.796875 94.039062 38.855469 C 93.761719 38.910156 93.492188 38.992188 93.230469 39.097656 C 92.96875 39.207031 92.722656 39.339844 92.484375 39.496094 C 92.25 39.652344 92.035156 39.832031 91.832031 40.03125 L 73.359375 58.527344 L 61.335938 46.492188 C 61.136719 46.292969 60.921875 46.117188 60.6875 45.957031 C 60.449219 45.800781 60.203125 45.667969 59.941406 45.558594 C 59.679688 45.453125 59.410156 45.371094 59.132812 45.316406 C 58.855469 45.261719 58.578125 45.234375 58.296875 45.234375 C 58.011719 45.234375 57.734375 45.261719 57.457031 45.316406 C 57.179688 45.371094 56.910156 45.453125 56.648438 45.558594 C 56.386719 45.667969 56.140625 45.800781 55.90625 45.957031 C 55.667969 46.117188 55.453125 46.292969 55.253906 46.492188 L 28.539062 73.230469 L 4.5 73.230469 C 4.214844 73.230469 3.9375 73.261719 3.660156 73.316406 C 3.382812 73.371094 3.113281 73.453125 2.851562 73.558594 C 2.589844 73.667969 2.34375 73.800781 2.105469 73.957031 C 1.871094 74.117188 1.65625 74.292969 1.453125 74.492188 C 1.253906 74.695312 1.078125 74.910156 0.917969 75.148438 C 0.761719 75.382812 0.628906 75.628906 0.523438 75.890625 C 0.414062 76.152344 0.332031 76.421875 0.277344 76.699219 C 0.222656 76.976562 0.195312 77.257812 0.195312 77.539062 L 0.195312 99.078125 C 0.195312 99.925781 0.277344 100.769531 0.441406 101.601562 C 0.609375 102.433594 0.851562 103.242188 1.175781 104.023438 C 1.5 104.808594 1.898438 105.554688 2.371094 106.257812 C 2.839844 106.964844 3.375 107.617188 3.976562 108.21875 C 4.574219 108.816406 5.226562 109.351562 5.933594 109.824219 C 6.636719 110.296875 7.382812 110.695312 8.164062 111.019531 C 8.949219 111.34375 9.753906 111.589844 10.585938 111.753906 C 11.417969 111.917969 12.257812 112.003906 13.105469 112.003906 L 116.394531 112.003906 C 117.242188 112.003906 118.082031 111.917969 118.914062 111.753906 C 119.746094 111.589844 120.554688 111.34375 121.335938 111.019531 C 122.121094 110.695312 122.863281 110.296875 123.570312 109.824219 C 124.273438 109.351562 124.925781 108.816406 125.523438 108.21875 C 126.125 107.617188 126.660156 106.964844 127.128906 106.257812 C 127.601562 105.554688 128 104.808594 128.324219 104.023438 C 128.648438 103.242188 128.894531 102.433594 129.058594 101.601562 C 129.222656 100.769531 129.304688 99.925781 129.304688 99.078125 L 129.304688 73.230469 C 129.304688 72.042969 128.886719 71.027344 128.046875 70.1875 Z M 128.046875 70.1875 " fill-opacity="1" fill-rule="nonzero"/></g><path fill="#ffd98c" d="M 43.230469 30.15625 C 43.230469 31.003906 43.148438 31.84375 42.984375 32.675781 C 42.820312 33.507812 42.574219 34.316406 42.25 35.101562 C 41.925781 35.882812 41.527344 36.628906 41.054688 37.335938 C 40.585938 38.039062 40.050781 38.691406 39.449219 39.292969 C 38.851562 39.894531 38.199219 40.429688 37.492188 40.898438 C 36.789062 41.371094 36.042969 41.769531 35.261719 42.09375 C 34.476562 42.417969 33.671875 42.664062 32.839844 42.828125 C 32.007812 42.996094 31.167969 43.078125 30.320312 43.078125 C 29.472656 43.078125 28.632812 42.996094 27.800781 42.828125 C 26.96875 42.664062 26.164062 42.417969 25.378906 42.09375 C 24.597656 41.769531 23.851562 41.371094 23.148438 40.898438 C 22.441406 40.429688 21.789062 39.894531 21.191406 39.292969 C 20.589844 38.691406 20.054688 38.039062 19.585938 37.335938 C 19.113281 36.628906 18.714844 35.882812 18.390625 35.101562 C 18.066406 34.316406 17.824219 33.507812 17.65625 32.675781 C 17.492188 31.84375 17.410156 31.003906 17.410156 30.15625 C 17.410156 29.304688 17.492188 28.464844 17.65625 27.632812 C 17.824219 26.800781 18.066406 25.992188 18.390625 25.207031 C 18.714844 24.425781 19.113281 23.679688 19.585938 22.976562 C 20.054688 22.269531 20.589844 21.617188 21.191406 21.015625 C 21.789062 20.417969 22.441406 19.878906 23.148438 19.410156 C 23.851562 18.9375 24.597656 18.539062 25.378906 18.214844 C 26.164062 17.890625 26.96875 17.644531 27.800781 17.480469 C 28.632812 17.3125 29.472656 17.230469 30.320312 17.230469 C 31.167969 17.230469 32.007812 17.3125 32.839844 17.480469 C 33.671875 17.644531 34.476562 17.890625 35.261719 18.214844 C 36.042969 18.539062 36.789062 18.9375 37.492188 19.410156 C 38.199219 19.878906 38.851562 20.417969 39.449219 21.015625 C 40.050781 21.617188 40.585938 22.269531 41.054688 22.976562 C 41.527344 23.679688 41.925781 24.425781 42.25 25.207031 C 42.574219 25.992188 42.820312 26.800781 42.984375 27.632812 C 43.148438 28.464844 43.230469 29.304688 43.230469 30.15625 Z M 43.230469 30.15625 " fill-opacity="1" fill-rule="nonzero"/></svg>