<svg xmlns="http://www.w3.org/2000/svg" width="18" height="18" viewBox="0 0 18 18" fill="none"><title>Follow us on Instagram</title><g clip-path="url(#clip0_14704_1341)"><path d="M5.29039 0.724786C4.40371 0.76662 3.79821 0.908121 3.26887 1.11612C2.72103 1.32963 2.25669 1.61613 1.79469 2.0798C1.33268 2.54347 1.04818 3.00814 0.836176 3.55681C0.631008 4.08732 0.492006 4.69333 0.452839 5.5805C0.413672 6.46768 0.405005 6.75285 0.409339 9.01587C0.413672 11.2789 0.423672 11.5626 0.466673 12.4516C0.509006 13.3381 0.650008 13.9434 0.85801 14.4729C1.07185 15.0208 1.35802 15.4849 1.82185 15.9471C2.28569 16.4093 2.75003 16.6931 3.30003 16.9055C3.83004 17.1103 4.43621 17.25 5.32322 17.2888C6.21023 17.3276 6.49573 17.3366 8.75809 17.3323C11.0204 17.328 11.3053 17.318 12.1941 17.2758C13.083 17.2336 13.6851 17.0916 14.2148 16.8846C14.7627 16.6703 15.2272 16.3846 15.689 15.9206C16.1508 15.4566 16.4352 14.9916 16.647 14.4426C16.8523 13.9126 16.9918 13.3064 17.0303 12.4201C17.0692 11.5306 17.0783 11.2466 17.074 8.98387C17.0697 6.72118 17.0595 6.43751 17.0173 5.54884C16.9752 4.66016 16.834 4.05665 16.6262 3.52681C16.412 2.97898 16.1262 2.51514 15.6625 2.05263C15.1988 1.59013 14.7335 1.30596 14.1846 1.09462C13.6543 0.889454 13.0485 0.749619 12.1615 0.711286C11.2744 0.672952 10.9889 0.663119 8.72576 0.667452C6.46257 0.671785 6.17923 0.681452 5.29039 0.724786ZM5.38772 15.7896C4.57521 15.7543 4.13404 15.6193 3.84004 15.5063C3.4507 15.3563 3.17337 15.1749 2.88036 14.8848C2.58736 14.5946 2.40736 14.3163 2.25536 13.9278C2.14119 13.6338 2.00369 13.1931 1.96569 12.3806C1.92435 11.5024 1.91569 11.2387 1.91085 9.01387C1.90602 6.78901 1.91452 6.52568 1.95302 5.64717C1.98769 4.83533 2.12352 4.39366 2.23636 4.09982C2.38636 3.70998 2.56703 3.43315 2.85786 3.14031C3.1487 2.84747 3.4262 2.66714 3.81504 2.51514C4.10871 2.40047 4.54938 2.26413 5.36156 2.22547C6.2404 2.1838 6.50373 2.17547 8.72826 2.17063C10.9528 2.1658 11.2168 2.17413 12.096 2.2128C12.9078 2.24813 13.3496 2.38264 13.6431 2.49614C14.0326 2.64614 14.3098 2.82631 14.6027 3.11764C14.8955 3.40898 15.076 3.68548 15.228 4.07515C15.3428 4.36799 15.4792 4.80849 15.5175 5.62117C15.5593 6.50001 15.5688 6.76351 15.5728 8.98787C15.5768 11.2122 15.569 11.4764 15.5305 12.3546C15.495 13.1671 15.3603 13.6084 15.2472 13.9028C15.0972 14.2919 14.9163 14.5694 14.6253 14.8621C14.3343 15.1548 14.0571 15.3351 13.6681 15.4871C13.3748 15.6016 12.9336 15.7383 12.1221 15.7769C11.2433 15.8183 10.9799 15.8269 8.75459 15.8318C6.52923 15.8366 6.26673 15.8276 5.38789 15.7896M12.1813 4.54599C12.1816 4.74379 12.2406 4.93705 12.3508 5.10132C12.4609 5.26559 12.6174 5.39351 12.8002 5.46888C12.9831 5.54425 13.1842 5.5637 13.3782 5.52477C13.5721 5.48583 13.7501 5.39026 13.8897 5.25014C14.0293 5.11002 14.1242 4.93164 14.1625 4.73758C14.2007 4.54351 14.1805 4.34246 14.1045 4.15987C14.0284 3.97727 13.8999 3.82133 13.7352 3.71176C13.5706 3.60219 13.3771 3.54392 13.1793 3.54431C12.9141 3.54484 12.66 3.65067 12.4729 3.83851C12.2857 4.02635 12.1808 4.28083 12.1813 4.54599ZM4.46288 9.0082C4.46755 11.3716 6.3869 13.2831 8.74976 13.2786C11.1126 13.2741 13.0255 11.3549 13.021 8.99154C13.0165 6.62818 11.0966 4.71616 8.73342 4.72083C6.37023 4.72549 4.45838 6.64518 4.46288 9.0082ZM5.9639 9.0052C5.96281 8.4558 6.12467 7.9184 6.429 7.46098C6.73333 7.00356 7.16646 6.64666 7.67363 6.43541C8.1808 6.22415 8.73923 6.16804 9.27829 6.27416C9.81735 6.38027 10.3128 6.64386 10.7021 7.03158C11.0914 7.4193 11.3569 7.91374 11.4652 8.45238C11.5734 8.99102 11.5195 9.54966 11.3103 10.0577C11.101 10.5657 10.7458 11.0002 10.2896 11.3064C9.83341 11.6125 9.29667 11.7765 8.74726 11.7776C8.38245 11.7783 8.02107 11.7072 7.68374 11.5683C7.34642 11.4294 7.03977 11.2254 6.7813 10.9679C6.52283 10.7105 6.31761 10.4046 6.17736 10.0679C6.03711 9.73111 5.96457 9.37001 5.9639 9.0052Z" fill="var(--color--charcoal-600)"></path></g><defs><clipPath id="clip0_14704_1341"><rect width="16.6667" height="16.6667" fill="white" transform="translate(0.408325 0.666626)"></rect></clipPath></defs></svg>