<svg xmlns="http://www.w3.org/2000/svg" xmlns:xlink="http://www.w3.org/1999/xlink" width="432" zoomAndPan="magnify" viewBox="0 0 324 323.999988" height="432" preserveAspectRatio="xMidYMid meet" version="1.0"><path fill="#231f20" d="M 144.503906 102.730469 C 142.082031 102.851562 140.820312 104.527344 140.925781 106.792969 C 141.035156 109.085938 142.460938 110.453125 144.917969 110.445312 C 147.359375 110.324219 148.789062 108.886719 148.714844 106.601562 C 148.636719 104.183594 147.082031 102.582031 144.503906 102.730469 " fill-opacity="1" fill-rule="nonzero"/><path fill="#231f20" d="M 147.066406 170.902344 C 142.472656 175.820312 138.0625 180.519531 133.292969 185.605469 C 140.308594 187.386719 146.816406 189.0625 153.582031 190.800781 C 151.339844 183.972656 149.273438 177.59375 147.066406 170.902344 " fill-opacity="1" fill-rule="nonzero"/><path fill="#231f20" d="M 144.480469 230.625 C 142.074219 230.777344 140.8125 232.445312 140.933594 234.734375 C 141.058594 237.054688 142.519531 238.363281 144.785156 238.378906 C 147.375 238.210938 148.804688 236.765625 148.714844 234.484375 C 148.621094 232.0625 147.046875 230.464844 144.480469 230.625 " fill-opacity="1" fill-rule="nonzero"/><path fill="#231f20" d="M 122.046875 179.808594 C 122.542969 180.265625 123.003906 180.734375 123.5 181.195312 C 129.734375 174.539062 135.820312 168.0625 142.082031 161.371094 C 135.390625 155.070312 128.699219 148.804688 122.007812 142.574219 C 122.046875 155 122.046875 167.382812 122.046875 179.808594 " fill-opacity="1" fill-rule="nonzero"/><path fill="#231f20" d="M 148.738281 138.976562 C 148.84375 136.449219 147.207031 135.171875 144.933594 134.671875 C 142.621094 134.992188 141.089844 136.132812 140.941406 138.476562 C 140.804688 141.042969 142.367188 142.574219 144.757812 142.644531 C 146.992188 142.71875 148.628906 141.257812 148.738281 138.976562 " fill-opacity="1" fill-rule="nonzero"/><path fill="#231f20" d="M 116.097656 137.023438 C 95.308594 117.515625 74.597656 98.082031 53.8125 78.609375 C 47.539062 85.339844 41.453125 91.820312 35.261719 98.433594 C 62.316406 123.777344 89.191406 149.011719 116.175781 174.324219 C 116.175781 161.898438 116.136719 149.441406 116.097656 137.023438 " fill-opacity="1" fill-rule="nonzero"/><path fill="#231f20" d="M 268.585938 137.910156 C 268.585938 122.925781 268.515625 107.972656 268.625 92.988281 C 268.652344 87.292969 266.664062 82.816406 261.503906 80.171875 C 252.957031 75.800781 243.242188 82.027344 243.242188 91.925781 C 243.171875 127.835938 243.210938 163.75 243.242188 199.628906 C 243.242188 200.488281 242.921875 201.414062 243.953125 202.265625 C 250.609375 202.265625 257.445312 202.019531 264.28125 202.371094 C 268.019531 202.546875 268.691406 201.125 268.625 197.785156 C 268.445312 187.777344 268.585938 177.742188 268.585938 167.742188 C 268.585938 165.496094 268.652344 163.324219 271.433594 162.648438 C 273.636719 163.039062 274.535156 164.394531 274.496094 166.667969 C 274.457031 177.953125 274.535156 189.242188 274.457031 200.519531 C 274.425781 205.328125 271.609375 207.960938 266.378906 208 C 258.800781 208.105469 251.183594 208.03125 243.671875 208.03125 C 242.851562 209.53125 243.210938 210.945312 243.210938 212.300781 C 243.171875 227.394531 243.171875 242.492188 243.171875 257.582031 C 243.171875 265.015625 240.324219 267.867188 232.8125 267.867188 L 126.28125 267.867188 C 118.625 267.867188 116.097656 265.269531 116.097656 257.582031 C 116.097656 234.484375 116.136719 211.375 116.175781 188.277344 C 90.753906 164.394531 65.34375 140.507812 39.855469 116.625 C 35.796875 112.8125 31.707031 109.007812 27.609375 105.164062 C 26.078125 103.671875 24.585938 102.140625 23.054688 100.648438 L 23.054688 96.65625 C 31.84375 87.261719 40.605469 77.832031 49.394531 68.464844 C 52.105469 65.578125 54.835938 65.617188 57.792969 68.429688 C 77.234375 86.65625 96.664062 104.878906 116.066406 123.066406 C 116.027344 113.886719 115.992188 104.667969 115.921875 95.484375 C 115.851562 82.5625 125.8125 72.660156 138.777344 72.808594 C 177.320312 73.234375 215.871094 72.953125 254.421875 72.953125 C 266.839844 72.953125 274.457031 80.640625 274.496094 93.097656 C 274.496094 112.78125 274.457031 132.429688 274.535156 152.074219 C 274.535156 154.570312 274.390625 156.699219 271.324219 157.167969 C 268.945312 156.417969 268.554688 154.535156 268.554688 152.359375 C 268.625 147.558594 268.585938 142.71875 268.585938 137.910156 Z M 162.097656 0.0625 C 72.609375 0.0625 0.0625 72.609375 0.0625 162.097656 C 0.0625 251.585938 72.609375 324.132812 162.097656 324.132812 C 251.585938 324.132812 324.132812 251.585938 324.132812 162.097656 C 324.132812 72.609375 251.585938 0.0625 162.097656 0.0625 " fill-opacity="1" fill-rule="nonzero"/><path fill="#231f20" d="M 222.277344 109.550781 C 216.085938 109.480469 209.882812 109.527344 203.6875 109.527344 C 197.609375 109.527344 191.539062 109.503906 185.472656 109.535156 C 183.34375 109.542969 181.589844 109.09375 181.582031 106.550781 C 181.582031 104.167969 183.398438 103.664062 185.257812 103.65625 C 197.65625 103.601562 210.050781 103.609375 222.445312 103.640625 C 224.5 103.640625 226.464844 104.285156 226.375 106.726562 C 226.289062 109.113281 224.40625 109.574219 222.277344 109.550781 Z M 222.332031 141.59375 C 213.34375 141.546875 204.347656 141.570312 195.359375 141.570312 C 186.484375 141.570312 177.617188 141.554688 168.75 141.585938 C 166.554688 141.59375 164.417969 141.394531 164.515625 138.585938 C 164.609375 136.050781 166.691406 135.84375 168.707031 135.84375 C 186.566406 135.84375 204.429688 135.84375 222.285156 135.84375 C 224.34375 135.84375 226.375 136.25 226.375 138.714844 C 226.375 141.132812 224.460938 141.601562 222.332031 141.59375 Z M 221.558594 237.40625 C 212.9375 237.378906 204.316406 237.390625 195.695312 237.390625 C 186.820312 237.390625 177.9375 237.371094 169.066406 237.40625 C 166.921875 237.421875 164.59375 237.414062 164.515625 234.703125 C 164.433594 231.796875 166.835938 231.519531 169.140625 231.519531 C 186.636719 231.519531 204.132812 231.519531 221.636719 231.527344 C 223.863281 231.527344 226.414062 231.632812 226.375 234.566406 C 226.328125 237.523438 223.792969 237.414062 221.558594 237.40625 Z M 205.472656 173.667969 C 193.0625 173.660156 180.640625 173.652344 168.230469 173.675781 C 166.21875 173.683594 164.503906 173.109375 164.488281 170.871094 C 164.472656 168.382812 166.347656 167.949219 168.476562 167.964844 C 174.683594 168.015625 180.894531 167.984375 187.097656 167.984375 C 193.183594 167.984375 199.261719 168 205.34375 167.96875 C 207.457031 167.964844 209.292969 168.339844 209.230469 170.933594 C 209.179688 173.292969 207.417969 173.675781 205.472656 173.667969 Z M 144.65625 116.394531 C 139.113281 116.34375 134.964844 112.03125 135.0625 106.40625 C 135.148438 101.097656 139.472656 96.765625 144.726562 96.726562 C 150.03125 96.6875 154.648438 101.320312 154.625 106.664062 C 154.609375 112.09375 150.144531 116.449219 144.65625 116.394531 Z M 144.976562 244.289062 C 139.375 244.367188 135.078125 240.179688 135.046875 234.628906 C 135.023438 229.109375 139.382812 224.636719 144.777344 224.636719 C 150.117188 224.644531 154.695312 229.285156 154.632812 234.628906 C 154.578125 239.917969 150.277344 244.222656 144.976562 244.289062 Z M 139.089844 78.789062 C 128.699219 78.71875 121.832031 85.019531 121.863281 96.082031 C 121.941406 106.941406 121.96875 117.796875 121.96875 128.652344 C 126.417969 132.820312 130.875 136.984375 135.324219 141.148438 C 135.140625 140.398438 135.039062 139.617188 135.039062 138.800781 C 135.039062 133.285156 139.34375 128.90625 144.785156 128.90625 C 150.09375 128.90625 154.433594 133.109375 154.609375 138.445312 C 154.792969 143.890625 150.445312 148.378906 144.96875 148.445312 C 144.257812 148.445312 143.613281 148.414062 142.933594 148.308594 C 145.820312 151.011719 148.707031 153.714844 151.625 156.417969 C 153.046875 157.734375 153.972656 159.265625 154.578125 161.117188 C 158.277344 172.550781 162.015625 183.894531 165.789062 195.289062 C 166.324219 196.890625 166.609375 198.421875 166.070312 199.84375 C 166.929688 199.492188 168.070312 199.414062 169.171875 199.414062 L 221.671875 199.414062 C 223.957031 199.414062 226.40625 199.628906 226.335938 202.515625 C 226.265625 205.433594 223.769531 205.433594 221.527344 205.433594 C 212.882812 205.394531 204.269531 205.433594 195.648438 205.433594 C 186.898438 205.433594 178.136719 205.394531 169.386719 205.433594 C 167.144531 205.433594 164.617188 205.542969 164.539062 202.585938 C 164.539062 202.300781 164.539062 202.050781 164.617188 201.804688 C 162.976562 203.296875 161.019531 203.230469 158.8125 202.65625 C 147.421875 199.628906 135.957031 196.75 124.535156 193.863281 C 123.648438 193.652344 122.789062 193.367188 122.007812 192.9375 C 122.007812 214.300781 122.007812 235.65625 121.941406 257.007812 C 121.902344 260.753906 122.859375 261.992188 126.777344 261.953125 C 150.238281 261.777344 173.691406 261.886719 197.148438 261.886719 C 209.214844 261.886719 221.246094 261.816406 233.3125 261.925781 C 236.304688 261.953125 237.371094 260.996094 237.191406 257.972656 C 236.980469 254.449219 237.191406 250.890625 237.191406 247.332031 L 237.191406 95.554688 C 237.191406 89.820312 237.582031 84.164062 242.175781 78.894531 L 238.753906 78.894531 C 205.550781 78.894531 172.34375 79.148438 139.089844 78.789062 " fill-opacity="1" fill-rule="nonzero"/></svg>