<svg xmlns="http://www.w3.org/2000/svg" xmlns:xlink="http://www.w3.org/1999/xlink" width="173" zoomAndPan="magnify" viewBox="0 0 129.75 123.000003" height="164" preserveAspectRatio="xMidYMid meet" version="1.0">

    <path fill="#000000" d="M 34.269531 47.449219 L 34.269531 38.308594 L 41.613281 49.328125 C 42.25 50.289062 43.316406 50.835938 44.429688 50.835938 C 44.757812 50.835938 45.085938 50.792969 45.410156 50.691406 C 46.839844 50.261719 47.816406 48.941406 47.816406 47.449219 L 47.816406 27.117188 C 47.816406 25.242188 46.300781 23.726562 44.429688 23.726562 C 42.558594 23.726562 41.042969 25.242188 41.042969 27.117188 L 41.042969 36.257812 L 33.699219 25.234375 C 32.871094 23.992188 31.324219 23.4375 29.898438 23.871094 C 28.46875 24.304688 27.496094 25.621094 27.496094 27.117188 L 27.496094 47.449219 C 27.496094 49.320312 29.007812 50.835938 30.882812 50.835938 C 32.753906 50.835938 34.269531 49.320312 34.269531 47.449219 Z M 34.269531 47.449219 " fill-opacity="1" fill-rule="nonzero"/>
    
    <path fill="#000000" d="M 66.867188 30.503906 C 68.738281 30.503906 70.253906 28.988281 70.253906 27.117188 C 70.253906 25.242188 68.738281 23.726562 66.867188 23.726562 L 56.707031 23.726562 C 54.835938 23.726562 53.320312 25.242188 53.320312 27.117188 L 53.320312 47.449219 C 53.320312 49.320312 54.835938 50.835938 56.707031 50.835938 L 66.867188 50.835938 C 68.738281 50.835938 70.253906 49.320312 70.253906 47.449219 C 70.253906 45.578125 68.738281 44.058594 66.867188 44.058594 L 60.09375 44.058594 L 60.09375 40.671875 L 66.867188 40.671875 C 68.738281 40.671875 70.253906 39.152344 70.253906 37.28125 C 70.253906 35.410156 68.738281 33.894531 66.867188 33.894531 L 60.09375 33.894531 L 60.09375 30.503906 Z M 66.867188 30.503906 " fill-opacity="1" fill-rule="nonzero"/>
    
    <path fill="#000000" d="M 80.972656 50.761719 C 82.34375 51.054688 83.734375 50.484375 84.503906 49.328125 L 88.460938 43.390625 C 88.460938 43.390625 92.410156 49.320312 92.414062 49.328125 C 93.164062 50.453125 94.625 51.046875 95.945312 50.761719 C 97.304688 50.46875 98.347656 49.378906 98.574219 48.007812 L 101.960938 27.671875 C 102.269531 25.828125 101.023438 24.082031 99.175781 23.773438 C 97.332031 23.46875 95.585938 24.710938 95.28125 26.558594 L 93.300781 38.4375 L 91.277344 35.402344 C 90.019531 33.515625 86.898438 33.515625 85.640625 35.402344 L 83.617188 38.4375 L 81.640625 26.558594 C 81.335938 24.710938 79.585938 23.46875 77.742188 23.773438 C 75.898438 24.082031 74.652344 25.828125 74.957031 27.671875 L 78.34375 48.007812 C 78.574219 49.378906 79.613281 50.46875 80.972656 50.761719 Z M 80.972656 50.761719 " fill-opacity="1" fill-rule="nonzero"/>
    
    <path fill="#000000" d="M 112.167969 57.613281 L 17.332031 57.613281 C 15.460938 57.613281 13.945312 59.132812 13.945312 61.003906 C 13.945312 62.875 15.460938 64.394531 17.332031 64.394531 L 112.167969 64.394531 C 114.039062 64.394531 115.554688 62.875 115.554688 61.003906 C 115.554688 59.132812 114.039062 57.613281 112.167969 57.613281 Z M 112.167969 57.613281 " fill-opacity="1" fill-rule="nonzero"/>
    
    <path fill="#000000" d="M 45.277344 98.28125 C 47.148438 98.28125 48.664062 96.765625 48.664062 94.894531 L 48.664062 77.949219 L 53.742188 77.949219 C 55.617188 77.949219 57.128906 76.429688 57.128906 74.558594 C 57.128906 72.6875 55.617188 71.171875 53.742188 71.171875 L 36.808594 71.171875 C 34.9375 71.171875 33.421875 72.6875 33.421875 74.558594 C 33.421875 76.429688 34.9375 77.949219 36.808594 77.949219 L 41.890625 77.949219 L 41.890625 94.894531 C 41.890625 96.765625 43.402344 98.28125 45.277344 98.28125 Z M 45.277344 98.28125 " fill-opacity="1" fill-rule="nonzero"/>
    
    <path fill="#000000" d="M 75.757812 77.949219 C 77.628906 77.949219 79.144531 76.429688 79.144531 74.558594 C 79.144531 72.6875 77.628906 71.171875 75.757812 71.171875 L 65.597656 71.171875 C 63.726562 71.171875 62.210938 72.6875 62.210938 74.558594 L 62.210938 94.894531 C 62.210938 96.765625 63.726562 98.28125 65.597656 98.28125 L 75.757812 98.28125 C 77.628906 98.28125 79.144531 96.765625 79.144531 94.894531 C 79.144531 93.019531 77.628906 91.503906 75.757812 91.503906 L 68.984375 91.503906 L 68.984375 88.113281 L 75.757812 88.113281 C 77.628906 88.113281 79.144531 86.597656 79.144531 84.726562 C 79.144531 82.855469 77.628906 81.335938 75.757812 81.335938 L 68.984375 81.335938 L 68.984375 77.949219 Z M 75.757812 77.949219 " fill-opacity="1" fill-rule="nonzero"/>
    
    <path fill="#000000" d="M 104.546875 98.28125 C 106.417969 98.28125 107.933594 96.765625 107.933594 94.894531 L 107.933594 74.558594 C 107.933594 73.132812 107.042969 71.859375 105.703125 71.371094 C 104.363281 70.890625 102.859375 71.292969 101.945312 72.390625 L 96.082031 79.433594 L 90.214844 72.390625 C 89.300781 71.292969 87.792969 70.890625 86.457031 71.371094 C 85.117188 71.859375 84.226562 73.132812 84.226562 74.558594 L 84.226562 94.894531 C 84.226562 96.765625 85.742188 98.28125 87.613281 98.28125 C 89.484375 98.28125 91 96.765625 91 94.894531 L 91 83.921875 L 93.476562 86.894531 C 94.765625 88.441406 97.394531 88.441406 98.683594 86.894531 L 101.160156 83.921875 L 101.160156 94.894531 C 101.160156 96.765625 102.675781 98.28125 104.546875 98.28125 Z M 104.546875 98.28125 " fill-opacity="1" fill-rule="nonzero"/>
    
    <path fill="#000000" d="M 21.566406 74.558594 L 21.566406 94.894531 C 21.566406 96.765625 23.082031 98.28125 24.953125 98.28125 C 26.828125 98.28125 28.339844 96.765625 28.339844 94.894531 L 28.339844 74.558594 C 28.339844 72.6875 26.828125 71.171875 24.953125 71.171875 C 23.082031 71.171875 21.566406 72.6875 21.566406 74.558594 Z M 21.566406 74.558594 " fill-opacity="1" fill-rule="nonzero"/>
    
    <g clip-path="url(#73717cd489)">
    
        <path fill="#000000" d="M 112.167969 0.00390625 L 17.332031 0.00390625 C 7.996094 0.00390625 0.398438 7.605469 0.398438 16.949219 L 0.398438 105.058594 C 0.398438 114.402344 7.996094 122.003906 17.332031 122.003906 L 112.167969 122.003906 C 121.503906 122.003906 129.101562 114.402344 129.101562 105.058594 L 129.101562 74.558594 C 129.101562 72.6875 127.589844 71.171875 125.714844 71.171875 C 123.84375 71.171875 122.328125 72.6875 122.328125 74.558594 L 122.328125 105.058594 C 122.328125 110.664062 117.769531 115.226562 112.167969 115.226562 L 17.332031 115.226562 C 11.730469 115.226562 7.171875 110.664062 7.171875 105.058594 L 7.171875 16.949219 C 7.171875 11.34375 11.730469 6.78125 17.332031 6.78125 L 112.167969 6.78125 C 117.769531 6.78125 122.328125 11.34375 122.328125 16.949219 L 122.328125 47.449219 C 122.328125 49.320312 123.84375 50.835938 125.714844 50.835938 C 127.589844 50.835938 129.101562 49.320312 129.101562 47.449219 L 129.101562 16.949219 C 129.101562 7.605469 121.503906 0.00390625 112.167969 0.00390625 Z M 112.167969 0.00390625 " fill-opacity="1" fill-rule="nonzero"/>
    </g>
    
    <path fill="#000000" d="M 20.722656 16.949219 C 20.722656 17.398438 20.636719 17.832031 20.464844 18.246094 C 20.292969 18.660156 20.046875 19.027344 19.730469 19.34375 C 19.410156 19.664062 19.046875 19.90625 18.628906 20.078125 C 18.214844 20.25 17.78125 20.335938 17.332031 20.335938 C 16.882812 20.335938 16.453125 20.25 16.039062 20.078125 C 15.621094 19.90625 15.257812 19.664062 14.9375 19.34375 C 14.621094 19.027344 14.375 18.660156 14.203125 18.246094 C 14.03125 17.832031 13.945312 17.398438 13.945312 16.949219 C 13.945312 16.5 14.03125 16.066406 14.203125 15.652344 C 14.375 15.238281 14.621094 14.871094 14.9375 14.550781 C 15.257812 14.234375 15.621094 13.988281 16.039062 13.816406 C 16.453125 13.644531 16.882812 13.558594 17.332031 13.558594 C 17.78125 13.558594 18.214844 13.644531 18.628906 13.816406 C 19.046875 13.988281 19.410156 14.234375 19.730469 14.550781 C 20.046875 14.871094 20.292969 15.238281 20.464844 15.652344 C 20.636719 16.066406 20.722656 16.5 20.722656 16.949219 Z M 20.722656 16.949219 " fill-opacity="1" fill-rule="nonzero"/>
    
    <path fill="#000000" d="M 115.554688 16.949219 C 115.554688 17.398438 115.46875 17.832031 115.296875 18.246094 C 115.125 18.660156 114.878906 19.027344 114.5625 19.34375 C 114.246094 19.664062 113.878906 19.90625 113.464844 20.078125 C 113.050781 20.25 112.617188 20.335938 112.167969 20.335938 C 111.71875 20.335938 111.285156 20.25 110.871094 20.078125 C 110.457031 19.90625 110.089844 19.664062 109.773438 19.34375 C 109.457031 19.027344 109.210938 18.660156 109.039062 18.246094 C 108.867188 17.832031 108.78125 17.398438 108.78125 16.949219 C 108.78125 16.5 108.867188 16.066406 109.039062 15.652344 C 109.210938 15.238281 109.457031 14.871094 109.773438 14.550781 C 110.089844 14.234375 110.457031 13.988281 110.871094 13.816406 C 111.285156 13.644531 111.71875 13.558594 112.167969 13.558594 C 112.617188 13.558594 113.050781 13.644531 113.464844 13.816406 C 113.878906 13.988281 114.246094 14.234375 114.5625 14.550781 C 114.878906 14.871094 115.125 15.238281 115.296875 15.652344 C 115.46875 16.066406 115.554688 16.5 115.554688 16.949219 Z M 115.554688 16.949219 " fill-opacity="1" fill-rule="nonzero"/>
    
    <path fill="#000000" d="M 20.722656 105.058594 C 20.722656 105.507812 20.636719 105.941406 20.464844 106.355469 C 20.292969 106.769531 20.046875 107.136719 19.730469 107.457031 C 19.410156 107.773438 19.046875 108.019531 18.628906 108.191406 C 18.214844 108.363281 17.78125 108.449219 17.332031 108.449219 C 16.882812 108.449219 16.453125 108.363281 16.039062 108.191406 C 15.621094 108.019531 15.257812 107.773438 14.9375 107.457031 C 14.621094 107.136719 14.375 106.769531 14.203125 106.355469 C 14.03125 105.941406 13.945312 105.507812 13.945312 105.058594 C 13.945312 104.609375 14.03125 104.175781 14.203125 103.761719 C 14.375 103.347656 14.621094 102.980469 14.9375 102.664062 C 15.257812 102.34375 15.621094 102.101562 16.039062 101.929688 C 16.453125 101.757812 16.882812 101.671875 17.332031 101.671875 C 17.78125 101.671875 18.214844 101.757812 18.628906 101.929688 C 19.046875 102.101562 19.410156 102.34375 19.730469 102.664062 C 20.046875 102.980469 20.292969 103.347656 20.464844 103.761719 C 20.636719 104.175781 20.722656 104.609375 20.722656 105.058594 Z M 20.722656 105.058594 " fill-opacity="1" fill-rule="nonzero"/>
    
    <path fill="#000000" d="M 115.554688 105.058594 C 115.554688 105.507812 115.46875 105.941406 115.296875 106.355469 C 115.125 106.769531 114.878906 107.136719 114.5625 107.457031 C 114.246094 107.773438 113.878906 108.019531 113.464844 108.191406 C 113.050781 108.363281 112.617188 108.449219 112.167969 108.449219 C 111.71875 108.449219 111.285156 108.363281 110.871094 108.191406 C 110.457031 108.019531 110.089844 107.773438 109.773438 107.457031 C 109.457031 107.136719 109.210938 106.769531 109.039062 106.355469 C 108.867188 105.941406 108.78125 105.507812 108.78125 105.058594 C 108.78125 104.609375 108.867188 104.175781 109.039062 103.761719 C 109.210938 103.347656 109.457031 102.980469 109.773438 102.664062 C 110.089844 102.34375 110.457031 102.101562 110.871094 101.929688 C 111.285156 101.757812 111.71875 101.671875 112.167969 101.671875 C 112.617188 101.671875 113.050781 101.757812 113.464844 101.929688 C 113.878906 102.101562 114.246094 102.34375 114.5625 102.664062 C 114.878906 102.980469 115.125 103.347656 115.296875 103.761719 C 115.46875 104.175781 115.554688 104.609375 115.554688 105.058594 Z M 115.554688 105.058594 " fill-opacity="1" fill-rule="nonzero"/>
    
    <g clip-path="url(#9e73cec429)">
    
        <path fill="#000000" d="M 129.101562 61.003906 C 129.101562 61.453125 129.015625 61.886719 128.84375 62.300781 C 128.671875 62.714844 128.429688 63.082031 128.109375 63.398438 C 127.792969 63.71875 127.425781 63.964844 127.011719 64.136719 C 126.597656 64.308594 126.164062 64.394531 125.714844 64.394531 C 125.265625 64.394531 124.835938 64.308594 124.417969 64.136719 C 124.003906 63.964844 123.636719 63.71875 123.320312 63.398438 C 123.003906 63.082031 122.757812 62.714844 122.585938 62.300781 C 122.414062 61.886719 122.328125 61.453125 122.328125 61.003906 C 122.328125 60.554688 122.414062 60.121094 122.585938 59.707031 C 122.757812 59.292969 123.003906 58.925781 123.320312 58.609375 C 123.636719 58.289062 124.003906 58.046875 124.417969 57.875 C 124.835938 57.699219 125.265625 57.613281 125.714844 57.613281 C 126.164062 57.613281 126.597656 57.699219 127.011719 57.875 C 127.425781 58.046875 127.792969 58.289062 128.109375 58.609375 C 128.429688 58.925781 128.671875 59.292969 128.84375 59.707031 C 129.015625 60.121094 129.101562 60.554688 129.101562 61.003906 Z M 129.101562 61.003906 " fill-opacity="1" fill-rule="nonzero"/>
    </g>
    
</svg>