<svg xmlns="http://www.w3.org/2000/svg" xmlns:xlink="http://www.w3.org/1999/xlink" width="432" zoomAndPan="magnify" viewBox="0 0 324 323.999988" height="432" preserveAspectRatio="xMidYMid meet" version="1.0"><path fill="#868686" d="M 206.953125 266.429688 L 233.023438 252.207031 C 234.632812 249.011719 235.480469 245.472656 235.480469 241.882812 C 235.480469 237.714844 232.085938 234.320312 227.917969 234.320312 C 226.546875 234.320312 225.203125 234.695312 224.027344 235.398438 L 189.097656 256.355469 C 190.070312 258.019531 190.636719 259.941406 190.636719 261.988281 C 190.636719 266.484375 189.582031 270.738281 187.710938 274.519531 C 194.367188 272.472656 200.820312 269.773438 206.953125 266.429688 Z M 206.953125 266.429688 " fill-opacity="1" fill-rule="nonzero"/><path fill="#868686" d="M 250.109375 256.742188 C 248.808594 256.742188 247.519531 257.074219 246.375 257.695312 L 212.320312 276.273438 C 198.457031 283.835938 183.105469 288.46875 167.410156 289.898438 C 165.734375 290.207031 164.011719 290.378906 162.246094 290.378906 L 128.015625 290.378906 C 119.289062 290.378906 111.082031 293.777344 104.914062 299.945312 L 96.984375 292.019531 C 105.273438 283.730469 116.292969 279.167969 128.015625 279.167969 L 157.003906 279.167969 C 159.972656 279.167969 162.9375 279.027344 165.890625 278.773438 C 173.617188 277.097656 179.425781 270.210938 179.425781 261.988281 L 103.117188 256.898438 C 101.550781 256.796875 99.960938 256.742188 98.402344 256.742188 C 83.257812 256.742188 68.25 261.722656 56.105469 270.765625 L 56.105469 314.609375 L 72.589844 321.203125 C 77.246094 323.066406 82.148438 324.011719 87.164062 324.011719 L 144.695312 324.011719 C 170.007812 324.011719 194.636719 316.773438 215.929688 303.089844 L 248.171875 282.359375 C 254.265625 278.445312 257.902344 271.78125 257.902344 264.539062 C 257.902344 260.242188 254.40625 256.742188 250.109375 256.742188 Z M 250.109375 256.742188 " fill-opacity="1" fill-rule="nonzero"/><path fill="#868686" d="M 0.046875 256.742188 L 44.894531 256.742188 L 44.894531 324.011719 L 0.046875 324.011719 Z M 0.046875 256.742188 " fill-opacity="1" fill-rule="nonzero"/><path fill="#868686" d="M 124.242188 69.96875 C 128.140625 68.996094 131.972656 67.800781 135.738281 66.414062 C 127.03125 61.964844 116.636719 61.433594 107.359375 65.339844 C 90.273438 72.53125 82.222656 92.277344 89.402344 109.367188 L 89.417969 109.402344 C 96.617188 126.484375 116.371094 134.527344 133.457031 127.335938 C 141.144531 124.101562 147.210938 118.214844 150.71875 110.886719 C 149.765625 110.960938 148.8125 111 147.851562 111 L 146.054688 111 C 133.480469 111 121.8125 104.753906 114.839844 94.292969 C 113.085938 91.664062 112.160156 88.605469 112.160156 85.445312 C 112.160156 78.113281 117.128906 71.75 124.242188 69.96875 Z M 124.242188 69.96875 " fill-opacity="1" fill-rule="nonzero"/><path fill="#868686" d="M 123.371094 85.445312 C 123.371094 86.382812 123.648438 87.292969 124.167969 88.074219 C 129.058594 95.410156 137.238281 99.789062 146.054688 99.789062 L 147.851562 99.789062 C 152.785156 99.789062 157.609375 98.40625 161.792969 95.789062 L 201.542969 70.945312 L 208.699219 74.527344 C 218.054688 79.203125 229.273438 78.503906 237.976562 72.703125 L 244.195312 82.03125 C 232.152344 90.058594 216.632812 91.027344 203.6875 84.554688 L 202.152344 83.785156 L 171.773438 102.773438 L 184.671875 133.421875 L 238.054688 133.421875 C 243.070312 133.421875 247.972656 132.476562 252.628906 130.617188 L 269.113281 124.023438 L 269.113281 53.132812 L 262.527344 50.5 C 251.304688 46.007812 239.484375 43.734375 227.398438 43.734375 C 211.617188 43.734375 195.957031 47.726562 182.101562 55.28125 L 156.070312 69.484375 C 146.894531 74.488281 137.101562 78.3125 126.960938 80.847656 C 124.847656 81.375 123.371094 83.265625 123.371094 85.445312 Z M 123.371094 85.445312 " fill-opacity="1" fill-rule="nonzero"/><path fill="#868686" d="M 186.203125 165.953125 L 179.953125 151.109375 C 173.492188 156.035156 170.179688 164.164062 171.359375 172.203125 Z M 186.203125 165.953125 " fill-opacity="1" fill-rule="nonzero"/><path fill="#868686" d="M 117.957031 177.203125 L 124.207031 192.050781 L 139.050781 185.800781 C 134.125 179.339844 125.996094 176.023438 117.957031 177.203125 Z M 117.957031 177.203125 " fill-opacity="1" fill-rule="nonzero"/><path fill="#868686" d="M 122.863281 15.472656 L 116.351562 0 L 101.449219 6.433594 C 106.339844 13.183594 114.644531 16.675781 122.863281 15.472656 Z M 122.863281 15.472656 " fill-opacity="1" fill-rule="nonzero"/><path fill="#868686" d="M 175.511719 140.554688 L 162.910156 110.613281 C 158.84375 122.753906 149.796875 132.621094 137.808594 137.667969 C 132.144531 140.050781 126.261719 141.179688 120.46875 141.183594 C 113.648438 141.183594 106.957031 139.609375 100.902344 136.6875 L 113.515625 166.652344 C 120.273438 165.046875 127.34375 165.570312 133.90625 168.242188 C 140.46875 170.917969 145.890625 175.488281 149.601562 181.359375 L 160.804688 176.644531 C 159.203125 169.886719 159.726562 162.8125 162.398438 156.25 C 165.074219 149.691406 169.640625 144.269531 175.511719 140.554688 Z M 175.511719 140.554688 " fill-opacity="1" fill-rule="nonzero"/><path fill="#868686" d="M 280.324219 54.945312 L 325.167969 54.945312 L 325.167969 122.210938 L 280.324219 122.210938 Z M 280.324219 54.945312 " fill-opacity="1" fill-rule="nonzero"/><path fill="#868686" d="M 77.921875 82.089844 C 81.882812 70.300781 90.675781 60.199219 103.011719 55.003906 C 115.046875 49.9375 128.5 50.472656 139.910156 55.972656 L 127.304688 26.023438 C 124.769531 26.625 122.1875 26.933594 119.609375 26.933594 C 115.3125 26.933594 111.011719 26.101562 106.914062 24.429688 C 100.21875 21.699219 94.703125 17 90.984375 10.957031 L 79.941406 15.726562 C 81.636719 22.574219 81.136719 29.761719 78.421875 36.421875 C 75.746094 42.984375 71.179688 48.40625 65.304688 52.117188 Z M 77.921875 82.089844 " fill-opacity="1" fill-rule="nonzero"/><path fill="#868686" d="M 44.78125 43.398438 L 32.570312 53.902344 L 43.078125 66.113281 C 47.714844 59.441406 48.371094 50.6875 44.78125 43.398438 Z M 44.78125 43.398438 " fill-opacity="1" fill-rule="nonzero"/><path fill="#868686" d="M 33.65625 72.351562 L 24.535156 87.921875 L 69.9375 114.519531 Z M 33.65625 72.351562 " fill-opacity="1" fill-rule="nonzero"/><path fill="#868686" d="M 57.214844 61.789062 C 55.976562 66.570312 53.710938 70.992188 50.542969 74.792969 L 74.3125 102.414062 Z M 57.214844 61.789062 " fill-opacity="1" fill-rule="nonzero"/><path fill="#868686" d="M 69.425781 20.265625 L 54.597656 26.671875 L 60.867188 41.566406 C 67.382812 36.597656 70.691406 28.375 69.425781 20.265625 Z M 69.425781 20.265625 " fill-opacity="1" fill-rule="nonzero"/><path fill="#868686" d="M 265.152344 168.695312 L 273.078125 176.625 L 285.910156 163.792969 C 285.460938 187.910156 278.078125 211.085938 264.488281 230.960938 L 273.742188 237.289062 C 288.621094 215.53125 296.679688 190.148438 297.121094 163.75 L 309.996094 176.625 L 317.921875 168.695312 L 291.535156 142.3125 Z M 265.152344 168.695312 " fill-opacity="1" fill-rule="nonzero"/><path fill="#868686" d="M 56.988281 192.0625 L 47.761719 206.476562 C 42.136719 192.183594 39.289062 177.085938 39.289062 161.449219 C 39.289062 148.589844 41.257812 135.917969 45.140625 123.789062 L 34.464844 120.371094 C 30.226562 133.605469 28.078125 147.425781 28.078125 161.449219 C 28.078125 177.589844 30.871094 193.210938 36.375 208.058594 L 18.945312 201.089844 L 14.785156 211.5 L 49.078125 225.214844 L 66.429688 198.105469 Z M 56.988281 192.0625 " fill-opacity="1" fill-rule="nonzero"/></svg>