<svg xmlns="http://www.w3.org/2000/svg" xmlns:xlink="http://www.w3.org/1999/xlink" width="146" zoomAndPan="magnify" viewBox="0 0 109.5 129.749996" height="173" preserveAspectRatio="xMidYMid meet" version="1.0"><defs><clipPath id="81a921eaa3"><path d="M 0 0.171875 L 109 0.171875 L 109 129 L 0 129 Z M 0 0.171875 " clip-rule="nonzero"/></clipPath></defs><g clip-path="url(#81a921eaa3)"><path fill="#000000" d="M 107.175781 24.960938 C 106.179688 23.828125 104.78125 23.171875 103.308594 23.132812 C 91.886719 22.835938 77.429688 10.585938 67.875 5.777344 C 61.972656 2.820312 58.074219 0.867188 55.148438 0.351562 C 54.84375 0.3125 54.550781 0.285156 54.253906 0.285156 C 53.953125 0.285156 53.660156 0.3125 53.355469 0.359375 C 50.429688 0.871094 46.53125 2.824219 40.632812 5.785156 C 31.078125 10.585938 16.625 22.835938 5.203125 23.132812 C 3.726562 23.171875 2.324219 23.832031 1.328125 24.960938 C 0.324219 26.089844 -0.195312 27.589844 -0.121094 29.121094 C 2.335938 79.148438 20.226562 110.109375 51.625 128.105469 C 52.441406 128.570312 53.347656 128.808594 54.246094 128.808594 C 55.148438 128.808594 56.054688 128.570312 56.875 128.105469 C 88.273438 110.109375 106.160156 79.148438 108.617188 29.121094 C 108.699219 27.589844 108.179688 26.089844 107.175781 24.960938 Z M 82.210938 44.636719 L 55.714844 83.84375 C 54.765625 85.25 53.273438 86.183594 51.792969 86.183594 C 50.308594 86.183594 48.664062 85.371094 47.621094 84.328125 L 28.949219 65.59375 C 27.679688 64.316406 27.679688 62.246094 28.949219 60.972656 L 33.5625 56.335938 C 34.835938 55.066406 36.90625 55.066406 38.171875 56.335938 L 50.316406 68.515625 L 71.414062 37.285156 C 72.417969 35.796875 74.453125 35.410156 75.941406 36.421875 L 81.34375 40.09375 C 82.828125 41.105469 83.214844 43.144531 82.210938 44.636719 Z M 82.210938 44.636719 " fill-opacity="1" fill-rule="nonzero"/></g></svg>